<svg width="38" height="41" viewBox="0 0 38 41" fill="none" xmlns="http://www.w3.org/2000/svg">
<path d="M18.9999 18.125C13.3249 18.125 12.1749 9.525 12.1749 9.525C11.4999 5.05 13.5499 0 18.9249 0C24.3249 0 26.3749 5.05 25.6999 9.525C25.6999 9.525 24.6749 18.125 18.9999 18.125ZM18.9999 24.55L25.7999 20C31.7749 20 37.0999 25.825 37.0999 31.325V37.55C37.0999 37.55 27.9749 40.375 18.9999 40.375C9.8749 40.375 0.899902 37.55 0.899902 37.55V31.325C0.899902 25.7 5.7499 20.125 12.0749 20.125L18.9999 24.55Z" fill="#3E3E08"/>
</svg>
