<svg width="26" height="26" viewBox="0 0 26 26" fill="none" xmlns="http://www.w3.org/2000/svg">
<path d="M13.0002 15.1666V17.3333C11.2763 17.3333 9.62296 18.0181 8.40397 19.2371C7.18498 20.456 6.50016 22.1093 6.50016 23.8333H4.3335C4.3335 21.5347 5.24659 19.3303 6.8719 17.705C8.49722 16.0797 10.7016 15.1666 13.0002 15.1666ZM13.0002 14.0833C9.40891 14.0833 6.50016 11.1745 6.50016 7.58325C6.50016 3.992 9.40891 1.08325 13.0002 1.08325C16.5914 1.08325 19.5002 3.992 19.5002 7.58325C19.5002 11.1745 16.5914 14.0833 13.0002 14.0833ZM13.0002 11.9166C15.3943 11.9166 17.3335 9.97742 17.3335 7.58325C17.3335 5.18909 15.3943 3.24992 13.0002 3.24992C10.606 3.24992 8.66683 5.18909 8.66683 7.58325C8.66683 9.97742 10.606 11.9166 13.0002 11.9166ZM22.7502 18.4166H23.8335V23.8333H15.1668V18.4166H16.2502V17.3333C16.2502 16.4713 16.5926 15.6446 17.2021 15.0352C17.8116 14.4257 18.6382 14.0833 19.5002 14.0833C20.3621 14.0833 21.1888 14.4257 21.7983 15.0352C22.4078 15.6446 22.7502 16.4713 22.7502 17.3333V18.4166ZM20.5835 18.4166V17.3333C20.5835 17.0459 20.4694 16.7704 20.2662 16.5672C20.063 16.3641 19.7875 16.2499 19.5002 16.2499C19.2128 16.2499 18.9373 16.3641 18.7341 16.5672C18.531 16.7704 18.4168 17.0459 18.4168 17.3333V18.4166H20.5835Z" fill="white"/>
</svg>
