<svg width="26" height="26" viewBox="0 0 26 26" fill="none" xmlns="http://www.w3.org/2000/svg">
<path d="M19.6949 8.71004L20.1965 8.20737C20.5958 7.80786 21.1376 7.58335 21.7025 7.58325C22.2674 7.58315 22.8092 7.80746 23.2087 8.20683C23.6082 8.6062 23.8327 9.14792 23.8328 9.71282C23.8329 10.2777 23.6086 10.8195 23.2092 11.219L22.7076 11.7217M19.6949 8.71004C19.6949 8.71004 19.7577 9.77604 20.6991 10.7175C21.6406 11.6589 22.7076 11.7217 22.7076 11.7217M19.6949 8.71004L15.0799 13.325C14.7657 13.637 14.6097 13.7941 14.4754 13.9664C14.3172 14.17 14.1818 14.3889 14.0702 14.6229C13.976 14.82 13.9066 15.0291 13.7669 15.4484L13.3195 16.7917L13.1743 17.2261M22.7076 11.7217L18.0926 16.3367C17.7785 16.6509 17.6225 16.8069 17.4502 16.9412C17.2466 17.0994 17.0277 17.2348 16.7937 17.3464C16.5966 17.4406 16.3875 17.51 15.9682 17.6497L14.6249 18.0971L14.1905 18.2423M13.1743 17.2261L13.0302 17.6616C12.9967 17.7627 12.9919 17.8711 13.0164 17.9748C13.0409 18.0784 13.0938 18.1732 13.1691 18.2485C13.2445 18.3238 13.3392 18.3767 13.4429 18.4013C13.5465 18.4258 13.655 18.421 13.7561 18.3875L14.1905 18.2423M13.1743 17.2261L14.1905 18.2423" stroke="white" stroke-width="1.5"/>
<path d="M8.66667 14.0834H11.375M8.66667 9.75008H15.7083M8.66667 18.4167H10.2917M3.25 15.1667V10.8334C3.25 6.74816 3.25 4.705 4.51967 3.43641C5.78825 2.16675 7.83142 2.16675 11.9167 2.16675H14.0833C18.1686 2.16675 20.2117 2.16675 21.4803 3.43641M22.75 15.1667C22.75 19.252 22.75 21.2952 21.4803 22.5637M21.4803 22.5637C20.2117 23.8334 18.1686 23.8334 14.0833 23.8334H11.9167C7.83142 23.8334 5.78825 23.8334 4.51967 22.5637M21.4803 22.5637C22.503 21.5422 22.7012 20.0201 22.7402 17.3334" stroke="white" stroke-width="1.5" stroke-linecap="round"/>
</svg>
