<svg width="22" height="20" viewBox="0 0 22 20" fill="none" xmlns="http://www.w3.org/2000/svg">
<path d="M18 6V4H16V2H18V0H20V2H22V4H20V6H18ZM10 16.5C11.25 16.5 12.3127 16.0623 13.188 15.187C14.0633 14.3117 14.5007 13.2493 14.5 12C14.5 10.75 14.0623 9.68733 13.187 8.812C12.3117 7.93667 11.2493 7.49933 10 7.5C8.75 7.5 7.68734 7.93767 6.812 8.813C5.93667 9.68833 5.49934 10.7507 5.5 12C5.5 13.25 5.93767 14.3127 6.813 15.188C7.68834 16.0633 8.75067 16.5007 10 16.5ZM10 14.5C9.3 14.5 8.70834 14.2583 8.225 13.775C7.74167 13.2917 7.5 12.7 7.5 12C7.5 11.3 7.74167 10.7083 8.225 10.225C8.70834 9.74167 9.3 9.5 10 9.5C10.7 9.5 11.2917 9.74167 11.775 10.225C12.2583 10.7083 12.5 11.3 12.5 12C12.5 12.7 12.2583 13.2917 11.775 13.775C11.2917 14.2583 10.7 14.5 10 14.5ZM2 20C1.45 20 0.979002 19.804 0.587002 19.412C0.195002 19.02 -0.000664969 18.5493 1.69779e-06 18V6C1.69779e-06 5.45 0.196002 4.979 0.588002 4.587C0.980002 4.195 1.45067 3.99933 2 4H5.15L7 2H14V6H16V8H20V18C20 18.55 19.804 19.021 19.412 19.413C19.02 19.805 18.5493 20.0007 18 20H2Z" fill="#7E7E5A"/>
</svg>
