<svg width="26" height="26" viewBox="0 0 26 26" fill="none" xmlns="http://www.w3.org/2000/svg">
<path d="M5.41667 22.75C4.82084 22.75 4.31059 22.5377 3.88592 22.113C3.46125 21.6883 3.24928 21.1784 3.25 20.5833V5.41667C3.25 4.82084 3.46234 4.31059 3.887 3.88592C4.31167 3.46125 4.82156 3.24928 5.41667 3.25H11.9167V22.75H5.41667ZM14.0833 22.75V13H22.75V20.5833C22.75 21.1792 22.5377 21.6894 22.113 22.1141C21.6883 22.5388 21.1784 22.7507 20.5833 22.75H14.0833ZM14.0833 10.8333V3.25H20.5833C21.1792 3.25 21.6894 3.46234 22.1141 3.887C22.5388 4.31167 22.7507 4.82156 22.75 5.41667V10.8333H14.0833Z" fill="white"/>
</svg>
