<svg width="26" height="26" viewBox="0 0 26 26" fill="none" xmlns="http://www.w3.org/2000/svg">
<path d="M5.41667 20.5833V5.41667H13V13H20.5833V14.0833C21.3417 14.0833 22.0675 14.2242 22.75 14.4625V9.75L16.25 3.25H5.41667C4.21417 3.25 3.25 4.21417 3.25 5.41667V20.5833C3.25 21.158 3.47827 21.7091 3.8846 22.1154C4.29093 22.5217 4.84203 22.75 5.41667 22.75H14.4625C14.2242 22.0675 14.0833 21.3417 14.0833 20.5833H5.41667ZM15.1667 4.875L21.125 10.8333H15.1667V4.875ZM24.9167 19.5V21.6667H21.6667V24.9167H19.5V21.6667H16.25V19.5H19.5V16.25H21.6667V19.5H24.9167Z" fill="white"/>
</svg>
