<svg width="44" height="44" viewBox="0 0 44 44" fill="none" xmlns="http://www.w3.org/2000/svg">
<rect width="44" height="44" rx="8" fill="#3E3E08"/>
<path d="M15 29H16.425L26.2 19.225L24.775 17.8L15 27.575V29ZM13 31V26.75L26.2 13.575C26.4 13.3917 26.621 13.25 26.863 13.15C27.105 13.05 27.359 13 27.625 13C27.8917 13 28.15 13.05 28.4 13.15C28.65 13.25 28.8667 13.4 29.05 13.6L30.425 15C30.625 15.1833 30.771 15.4 30.863 15.65C30.955 15.9 31.0007 16.15 31 16.4C31 16.6667 30.954 16.921 30.862 17.163C30.77 17.405 30.6243 17.6257 30.425 17.825L17.25 31H13ZM25.475 18.525L24.775 17.8L26.2 19.225L25.475 18.525Z" fill="white"/>
</svg>
