<svg width="24" height="18" viewBox="0 0 24 18" fill="none" xmlns="http://www.w3.org/2000/svg">
<path d="M8.25005 9C9.2138 9 10.1457 8.56969 10.8751 7.78875C11.5843 7.02703 12.0174 6.01125 12.0938 4.92938C12.1754 3.77531 11.8233 2.71406 11.1029 1.94063C10.3824 1.16719 9.37505 0.75 8.25005 0.75C7.13302 0.75 6.12286 1.17469 5.40474 1.94625C4.67958 2.72531 4.32661 3.78469 4.40818 4.92891C4.48646 6.01219 4.91912 7.0275 5.62693 7.78828C6.35443 8.56969 7.28583 9 8.25005 9ZM2.07052 17.25H14.4291C14.6278 17.2511 14.8241 17.2065 15.0029 17.1198C15.1817 17.0331 15.3382 16.9065 15.4604 16.7498C15.59 16.58 15.6795 16.383 15.7222 16.1736C15.7649 15.9643 15.7597 15.748 15.7069 15.5409C15.3122 13.9561 14.3344 12.6417 12.8794 11.7403C11.588 10.9406 9.94411 10.5 8.25005 10.5C6.52271 10.5 4.92193 10.9219 3.62302 11.7211C2.16474 12.6178 1.18552 13.9397 0.792707 15.5438C0.740612 15.751 0.735981 15.9673 0.779161 16.1765C0.82234 16.3857 0.912216 16.5825 1.04208 16.7522C1.16414 16.9082 1.32029 17.0341 1.49855 17.1204C1.67682 17.2067 1.87247 17.251 2.07052 17.25ZM17.1094 9.1875C18.759 9.1875 20.2093 7.65375 20.3438 5.76891C20.4104 4.80328 20.1094 3.91031 19.5001 3.25547C18.8972 2.60719 18.0469 2.25 17.1094 2.25C16.1719 2.25 15.3282 2.60906 14.7221 3.26109C14.108 3.92109 13.808 4.81219 13.8783 5.76984C14.0129 7.65422 15.4627 9.1875 17.1094 9.1875ZM14.0316 10.6617C14.8561 10.2586 15.9263 10.057 17.109 10.057C18.4899 10.057 19.831 10.417 20.8857 11.0705C22.0815 11.8125 22.8858 12.893 23.2107 14.1975C23.2582 14.3851 23.2627 14.5811 23.2238 14.7707C23.1849 14.9603 23.1037 15.1387 22.9861 15.2925C22.8746 15.4357 22.7317 15.5514 22.5685 15.6307C22.4052 15.71 22.2259 15.7508 22.0444 15.75H16.8413C16.7535 15.75 16.6685 15.7192 16.601 15.6629C16.5336 15.6066 16.4881 15.5284 16.4724 15.442C16.4672 15.4125 16.4607 15.383 16.4532 15.3539C16.0557 13.7573 15.1243 12.4083 13.748 11.4248C13.6974 11.3884 13.6567 11.3398 13.6296 11.2836C13.6025 11.2274 13.5898 11.1653 13.5927 11.103C13.5956 11.0407 13.6141 10.9801 13.6464 10.9267C13.6786 10.8733 13.7237 10.8288 13.7776 10.7972C13.8511 10.7541 13.9355 10.7086 14.0316 10.6617Z" fill="white"/>
</svg>
