<svg width="26" height="26" viewBox="0 0 26 26" fill="none" xmlns="http://www.w3.org/2000/svg">
<path d="M20.5833 4.33341H19.5V2.16675H17.3333V4.33341H8.66667V2.16675H6.5V4.33341H5.41667C4.21417 4.33341 3.26083 5.30841 3.26083 6.50008L3.25 21.6667C3.25 22.2414 3.47827 22.7925 3.8846 23.1988C4.29093 23.6051 4.84203 23.8334 5.41667 23.8334H20.5833C21.775 23.8334 22.75 22.8584 22.75 21.6667V6.50008C22.75 5.30841 21.775 4.33341 20.5833 4.33341ZM20.5833 21.6667H5.41667V10.8334H20.5833V21.6667ZM20.5833 8.66675H5.41667V6.50008H20.5833V8.66675ZM13 14.0834H18.4167V19.5001H13V14.0834Z" fill="white"/>
</svg>
