<svg width="26" height="26" viewBox="0 0 26 26" fill="none" xmlns="http://www.w3.org/2000/svg">
<path d="M9.74984 23.8334C9.09984 23.8334 8.6665 23.4001 8.6665 22.7501V19.5001H4.33317C3.1415 19.5001 2.1665 18.5251 2.1665 17.3334V4.33341C2.1665 3.14175 3.1415 2.16675 4.33317 2.16675H21.6665C22.8582 2.16675 23.8332 3.14175 23.8332 4.33341V17.3334C23.8332 18.5251 22.8582 19.5001 21.6665 19.5001H15.0582L11.0498 23.5084C10.8332 23.7251 10.6165 23.8334 10.2915 23.8334H9.74984ZM10.8332 17.3334V20.6917L14.1915 17.3334H21.6665V4.33341H4.33317V17.3334H10.8332ZM17.6582 6.50008L16.1415 9.75008H18.4165V14.0834H14.0832V9.53341L15.4915 6.50008H17.6582ZM11.1582 6.50008L9.6415 9.75008H11.9165V14.0834H7.58317V9.53341L8.9915 6.50008H11.1582Z" fill="white"/>
</svg>
