<svg width="26" height="26" viewBox="0 0 26 26" fill="none" xmlns="http://www.w3.org/2000/svg">
<path fill-rule="evenodd" clip-rule="evenodd" d="M18.958 11.9165C16.6603 11.9165 15.5108 11.9165 14.7969 11.2026C14.083 10.4887 14.083 9.33925 14.083 7.0415C14.083 4.74375 14.083 3.59434 14.7969 2.88042C15.5108 2.1665 16.6603 2.1665 18.958 2.1665C21.2558 2.1665 22.4052 2.1665 23.1191 2.88042C23.833 3.59434 23.833 4.74375 23.833 7.0415C23.833 9.33925 23.833 10.4887 23.1191 11.2026C22.4052 11.9165 21.2558 11.9165 18.958 11.9165ZM19.7705 4.87484C19.7705 4.65935 19.6849 4.45269 19.5325 4.30031C19.3802 4.14794 19.1735 4.06234 18.958 4.06234C18.7425 4.06234 18.5359 4.14794 18.3835 4.30031C18.2311 4.45269 18.1455 4.65935 18.1455 4.87484V6.229H16.7913C16.5759 6.229 16.3692 6.31461 16.2168 6.46698C16.0644 6.61935 15.9788 6.82602 15.9788 7.0415C15.9788 7.25699 16.0644 7.46365 16.2168 7.61603C16.3692 7.7684 16.5759 7.854 16.7913 7.854H18.1455V9.20817C18.1455 9.42366 18.2311 9.63032 18.3835 9.78269C18.5359 9.93507 18.7425 10.0207 18.958 10.0207C19.1735 10.0207 19.3802 9.93507 19.5325 9.78269C19.6849 9.63032 19.7705 9.42366 19.7705 9.20817V7.854H21.1247C21.3402 7.854 21.5468 7.7684 21.6992 7.61603C21.8516 7.46365 21.9372 7.25699 21.9372 7.0415C21.9372 6.82602 21.8516 6.61935 21.6992 6.46698C21.5468 6.31461 21.3402 6.229 21.1247 6.229H19.7705V4.87484Z" fill="white"/>
<path opacity="0.5" d="M23.8332 13.7561C23.831 15.3486 23.8191 16.7006 23.7292 17.811C23.6241 19.1002 23.4085 20.177 22.9275 21.0708C22.7176 21.4626 22.4511 21.8215 22.1367 22.1357C21.2343 23.0381 20.0859 23.4465 18.6299 23.6415C17.2075 23.8333 15.3832 23.8333 13.0573 23.8333H12.9424C10.6154 23.8333 8.79325 23.8333 7.36975 23.6415C5.91484 23.4465 4.76542 23.0381 3.86409 22.1357C3.06459 21.3362 2.65075 20.3417 2.43192 19.1078C2.21525 17.8944 2.17625 16.3864 2.16867 14.5134C2.1665 14.0367 2.1665 13.5329 2.1665 12.9999V12.9414C2.1665 10.6144 2.1665 8.79228 2.35825 7.36878C2.55325 5.91386 2.96167 4.76444 3.86409 3.86311C4.76542 2.96069 5.91484 2.55228 7.36975 2.35728C8.63509 2.18719 10.2623 2.16769 12.2437 2.16553C12.4442 2.16553 12.6366 2.24519 12.7784 2.387C12.9202 2.52881 12.9998 2.72115 12.9998 2.92169C12.9998 3.12224 12.9202 3.31458 12.7784 3.45638C12.6366 3.59819 12.4442 3.67786 12.2437 3.67786C10.2341 3.68003 8.74017 3.69736 7.57125 3.85444C6.28317 4.02778 5.50642 4.35711 4.93225 4.93128C4.35809 5.50544 4.02984 6.28328 3.8565 7.57244C3.67992 8.88328 3.67775 10.6036 3.67775 12.9999V13.8493L4.68742 12.9674C5.12999 12.5802 5.70318 12.3757 6.29091 12.3952C6.87865 12.4147 7.437 12.6568 7.85292 13.0725L12.1754 17.395C12.5108 17.7306 12.9538 17.9371 13.4264 17.9781C13.8991 18.0191 14.371 17.892 14.7592 17.6193L15.0603 17.408C15.6202 17.0145 16.297 16.8227 16.98 16.8638C17.6631 16.9049 18.312 17.1766 18.8206 17.6344L21.673 20.2019C21.9601 19.5985 22.1313 18.8066 22.2223 17.6886C22.3078 16.6356 22.3198 15.3573 22.3208 13.7561C22.3208 13.5556 22.4005 13.3632 22.5423 13.2214C22.6841 13.0796 22.8765 12.9999 23.077 12.9999C23.2775 12.9999 23.4699 13.0796 23.6117 13.2214C23.7535 13.3632 23.8332 13.5556 23.8332 13.7561Z" fill="white"/>
</svg>
