<svg width="198" height="164" viewBox="0 0 198 164" fill="none" xmlns="http://www.w3.org/2000/svg">
<path d="M32.2273 15.4688C31.929 14.4318 31.5099 13.5156 30.9702 12.7202C30.4304 11.9105 29.7699 11.2287 28.9886 10.6747C28.2216 10.1065 27.3409 9.6733 26.3466 9.375C25.3665 9.0767 24.2798 8.92756 23.0866 8.92756C20.8565 8.92756 18.8963 9.48153 17.206 10.5895C15.5298 11.6974 14.223 13.3097 13.2855 15.4261C12.348 17.5284 11.8793 20.0994 11.8793 23.1392C11.8793 26.179 12.3409 28.7642 13.2642 30.8949C14.1875 33.0256 15.4943 34.652 17.1847 35.7741C18.875 36.8821 20.8707 37.4361 23.1719 37.4361C25.2599 37.4361 27.0426 37.0668 28.5199 36.3281C30.0114 35.5753 31.1477 34.517 31.929 33.1534C32.7244 31.7898 33.1222 30.1776 33.1222 28.3168L34.9972 28.5938H23.7472V21.6477H42.0071V27.1449C42.0071 30.9801 41.1974 34.2756 39.5781 37.0312C37.9588 39.7727 35.7287 41.8892 32.8878 43.3807C30.0469 44.858 26.794 45.5966 23.1293 45.5966C19.0384 45.5966 15.4446 44.6946 12.348 42.8906C9.25142 41.0724 6.83665 38.4943 5.10369 35.1562C3.38494 31.804 2.52557 27.8267 2.52557 23.2244C2.52557 19.6875 3.03693 16.5341 4.05966 13.7642C5.09659 10.9801 6.54545 8.62216 8.40625 6.69034C10.267 4.75852 12.4332 3.28835 14.9048 2.27983C17.3764 1.27131 20.054 0.767044 22.9375 0.767044C25.4091 0.767044 27.7102 1.12926 29.8409 1.85369C31.9716 2.56392 33.8608 3.57244 35.5085 4.87926C37.1705 6.18608 38.527 7.74148 39.5781 9.54545C40.6293 11.3352 41.304 13.3097 41.6023 15.4688H32.2273ZM45.7667 45V12.2727H54.5664V17.983H54.9073C55.5039 15.9517 56.5053 14.4176 57.9116 13.3807C59.3178 12.3295 60.9371 11.804 62.7695 11.804C63.2241 11.804 63.7141 11.8324 64.2397 11.8892C64.7653 11.946 65.2269 12.0241 65.6246 12.1236V20.1776C65.1985 20.0497 64.609 19.9361 63.8562 19.8366C63.1033 19.7372 62.4144 19.6875 61.7894 19.6875C60.4542 19.6875 59.261 19.9787 58.2099 20.5611C57.1729 21.1293 56.3491 21.9247 55.7383 22.9474C55.1417 23.9702 54.8434 25.1491 54.8434 26.4844V45H45.7667ZM80.7088 45.6392C77.3423 45.6392 74.4446 44.9574 72.0156 43.5938C69.6009 42.2159 67.7401 40.2699 66.4332 37.7557C65.1264 35.2273 64.473 32.2372 64.473 28.7855C64.473 25.419 65.1264 22.4645 66.4332 19.9219C67.7401 17.3793 69.5795 15.3977 71.9517 13.9773C74.3381 12.5568 77.1364 11.8466 80.3466 11.8466C82.5057 11.8466 84.5156 12.1946 86.3764 12.8906C88.2514 13.5724 89.8849 14.6023 91.277 15.9801C92.6832 17.358 93.777 19.0909 94.5582 21.179C95.3395 23.2528 95.7301 25.6818 95.7301 28.4659V30.9588H68.0952V25.3338H87.1861C87.1861 24.027 86.902 22.8693 86.3338 21.8608C85.7656 20.8523 84.9773 20.0639 83.9688 19.4957C82.9744 18.9134 81.8168 18.6222 80.4957 18.6222C79.1179 18.6222 77.8963 18.9418 76.831 19.581C75.7798 20.206 74.956 21.0511 74.3594 22.1165C73.7628 23.1676 73.4574 24.3395 73.4432 25.6321V30.9801C73.4432 32.5994 73.7415 33.9986 74.3381 35.1776C74.9489 36.3565 75.8082 37.2656 76.9162 37.9048C78.0241 38.544 79.3381 38.8636 80.858 38.8636C81.8665 38.8636 82.7898 38.7216 83.6278 38.4375C84.4659 38.1534 85.1832 37.7273 85.7798 37.1591C86.3764 36.5909 86.831 35.8949 87.1435 35.071L95.5384 35.625C95.1122 37.642 94.2386 39.4034 92.9176 40.9091C91.6108 42.4006 89.9205 43.5653 87.8466 44.4034C85.7869 45.2273 83.4077 45.6392 80.7088 45.6392ZM113.568 45.6392C110.202 45.6392 107.304 44.9574 104.875 43.5938C102.46 42.2159 100.599 40.2699 99.2926 37.7557C97.9858 35.2273 97.3324 32.2372 97.3324 28.7855C97.3324 25.419 97.9858 22.4645 99.2926 19.9219C100.599 17.3793 102.439 15.3977 104.811 13.9773C107.197 12.5568 109.996 11.8466 113.206 11.8466C115.365 11.8466 117.375 12.1946 119.236 12.8906C121.111 13.5724 122.744 14.6023 124.136 15.9801C125.543 17.358 126.636 19.0909 127.418 21.179C128.199 23.2528 128.589 25.6818 128.589 28.4659V30.9588H100.955V25.3338H120.045C120.045 24.027 119.761 22.8693 119.193 21.8608C118.625 20.8523 117.837 20.0639 116.828 19.4957C115.834 18.9134 114.676 18.6222 113.355 18.6222C111.977 18.6222 110.756 18.9418 109.69 19.581C108.639 20.206 107.815 21.0511 107.219 22.1165C106.622 23.1676 106.317 24.3395 106.303 25.6321V30.9801C106.303 32.5994 106.601 33.9986 107.197 35.1776C107.808 36.3565 108.668 37.2656 109.776 37.9048C110.884 38.544 112.197 38.8636 113.717 38.8636C114.726 38.8636 115.649 38.7216 116.487 38.4375C117.325 38.1534 118.043 37.7273 118.639 37.1591C119.236 36.5909 119.69 35.8949 120.003 35.071L128.398 35.625C127.972 37.642 127.098 39.4034 125.777 40.9091C124.47 42.4006 122.78 43.5653 120.706 44.4034C118.646 45.2273 116.267 45.6392 113.568 45.6392ZM140.589 26.0795V45H131.513V12.2727H140.163V18.0469H140.547C141.271 16.1435 142.486 14.6378 144.19 13.5298C145.895 12.4077 147.962 11.8466 150.391 11.8466C152.663 11.8466 154.645 12.3437 156.335 13.3381C158.026 14.3324 159.339 15.7528 160.277 17.5994C161.214 19.4318 161.683 21.6193 161.683 24.1619V45H152.607V25.7812C152.621 23.7784 152.109 22.2159 151.072 21.0938C150.036 19.9574 148.608 19.3892 146.79 19.3892C145.568 19.3892 144.489 19.652 143.551 20.1776C142.628 20.7031 141.903 21.4702 141.378 22.4787C140.866 23.473 140.604 24.6733 140.589 26.0795ZM9.57812 104L0.671875 71.2727H9.85511L14.9261 93.2614H15.2244L20.5085 71.2727H29.5213L34.8906 93.1335H35.1676L40.1534 71.2727H49.3153L40.4304 104H30.821L25.196 83.4176H24.7912L19.1662 104H9.57812ZM65.2518 104.639C61.8853 104.639 58.9876 103.957 56.5586 102.594C54.1438 101.216 52.283 99.2699 50.9762 96.7557C49.6694 94.2273 49.016 91.2372 49.016 87.7855C49.016 84.419 49.6694 81.4645 50.9762 78.9219C52.283 76.3793 54.1225 74.3977 56.4947 72.9773C58.881 71.5568 61.6793 70.8466 64.8896 70.8466C67.0487 70.8466 69.0586 71.1946 70.9194 71.8906C72.7944 72.5724 74.4279 73.6023 75.82 74.9801C77.2262 76.358 78.32 78.0909 79.1012 80.179C79.8825 82.2528 80.2731 84.6818 80.2731 87.4659V89.9588H52.6381V84.3338H71.729C71.729 83.027 71.445 81.8693 70.8768 80.8608C70.3086 79.8523 69.5202 79.0639 68.5117 78.4957C67.5174 77.9134 66.3597 77.6222 65.0387 77.6222C63.6609 77.6222 62.4393 77.9418 61.3739 78.581C60.3228 79.206 59.4989 80.0511 58.9023 81.1165C58.3058 82.1676 58.0004 83.3395 57.9862 84.6321V89.9801C57.9862 91.5994 58.2844 92.9986 58.881 94.1776C59.4918 95.3565 60.3512 96.2656 61.4592 96.9048C62.5671 97.544 63.881 97.8636 65.4009 97.8636C66.4094 97.8636 67.3327 97.7216 68.1708 97.4375C69.0089 97.1534 69.7262 96.7273 70.3228 96.1591C70.9194 95.5909 71.3739 94.8949 71.6864 94.071L80.0813 94.625C79.6552 96.642 78.7816 98.4034 77.4606 99.9091C76.1538 101.401 74.4634 102.565 72.3896 103.403C70.3299 104.227 67.9506 104.639 65.2518 104.639ZM92.2731 60.3636V104H83.1964V60.3636H92.2731ZM114.143 71.2727V78.0909H93.9446V71.2727H114.143ZM98.5682 104V68.9077C98.5682 66.5355 99.0298 64.5682 99.9531 63.0057C100.891 61.4432 102.169 60.2713 103.788 59.4901C105.408 58.7088 107.247 58.3182 109.307 58.3182C110.699 58.3182 111.97 58.4247 113.121 58.6378C114.286 58.8509 115.152 59.0426 115.72 59.2131L114.101 66.0312C113.746 65.9176 113.305 65.8111 112.78 65.7116C112.268 65.6122 111.743 65.5625 111.203 65.5625C109.868 65.5625 108.938 65.875 108.412 66.5C107.886 67.1108 107.624 67.9702 107.624 69.0781V104H98.5682ZM124.849 104.618C122.761 104.618 120.9 104.256 119.267 103.531C117.633 102.793 116.341 101.706 115.389 100.271C114.451 98.8224 113.983 97.0185 113.983 94.8594C113.983 93.0412 114.316 91.5142 114.984 90.2784C115.652 89.0426 116.561 88.0483 117.711 87.2955C118.862 86.5426 120.169 85.9744 121.632 85.5909C123.109 85.2074 124.657 84.9375 126.277 84.7812C128.18 84.5824 129.714 84.3977 130.879 84.2273C132.044 84.0426 132.889 83.7727 133.414 83.4176C133.94 83.0625 134.203 82.5369 134.203 81.8409V81.7131C134.203 80.3636 133.777 79.3196 132.924 78.581C132.086 77.8423 130.893 77.473 129.345 77.473C127.711 77.473 126.412 77.8352 125.446 78.5597C124.48 79.2699 123.841 80.1648 123.528 81.2443L115.133 80.5625C115.559 78.5739 116.397 76.8551 117.647 75.4062C118.897 73.9432 120.51 72.821 122.484 72.0398C124.473 71.2443 126.774 70.8466 129.387 70.8466C131.206 70.8466 132.946 71.0597 134.608 71.4858C136.284 71.9119 137.768 72.5724 139.061 73.4673C140.368 74.3622 141.397 75.5128 142.15 76.919C142.903 78.3111 143.279 79.9801 143.279 81.9261V104H134.672V99.4616H134.416C133.89 100.484 133.187 101.386 132.306 102.168C131.426 102.935 130.368 103.538 129.132 103.979C127.896 104.405 126.468 104.618 124.849 104.618ZM127.449 98.3537C128.784 98.3537 129.963 98.0909 130.985 97.5653C132.008 97.0256 132.811 96.3011 133.393 95.392C133.975 94.483 134.267 93.4531 134.267 92.3026V88.8295C133.983 89.0142 133.592 89.1847 133.095 89.3409C132.612 89.483 132.065 89.6179 131.454 89.7457C130.843 89.8594 130.233 89.9659 129.622 90.0653C129.011 90.1506 128.457 90.2287 127.96 90.2997C126.895 90.456 125.964 90.7045 125.169 91.0455C124.373 91.3864 123.755 91.848 123.315 92.4304C122.875 92.9986 122.654 93.7088 122.654 94.5611C122.654 95.7969 123.102 96.7415 123.997 97.3949C124.906 98.0341 126.056 98.3537 127.449 98.3537ZM147.321 104V71.2727H156.121V76.983H156.462C157.059 74.9517 158.06 73.4176 159.466 72.3807C160.873 71.3295 162.492 70.804 164.324 70.804C164.779 70.804 165.269 70.8324 165.794 70.8892C166.32 70.946 166.782 71.0241 167.179 71.1236V79.1776C166.753 79.0497 166.164 78.9361 165.411 78.8366C164.658 78.7372 163.969 78.6875 163.344 78.6875C162.009 78.6875 160.816 78.9787 159.765 79.5611C158.728 80.1293 157.904 80.9247 157.293 81.9474C156.696 82.9702 156.398 84.1491 156.398 85.4844V104H147.321ZM182.263 104.639C178.897 104.639 175.999 103.957 173.57 102.594C171.156 101.216 169.295 99.2699 167.988 96.7557C166.681 94.2273 166.028 91.2372 166.028 87.7855C166.028 84.419 166.681 81.4645 167.988 78.9219C169.295 76.3793 171.134 74.3977 173.506 72.9773C175.893 71.5568 178.691 70.8466 181.901 70.8466C184.06 70.8466 186.07 71.1946 187.931 71.8906C189.806 72.5724 191.44 73.6023 192.832 74.9801C194.238 76.358 195.332 78.0909 196.113 80.179C196.894 82.2528 197.285 84.6818 197.285 87.4659V89.9588H169.65V84.3338H188.741C188.741 83.027 188.457 81.8693 187.888 80.8608C187.32 79.8523 186.532 79.0639 185.523 78.4957C184.529 77.9134 183.371 77.6222 182.05 77.6222C180.673 77.6222 179.451 77.9418 178.386 78.581C177.335 79.206 176.511 80.0511 175.914 81.1165C175.317 82.1676 175.012 83.3395 174.998 84.6321V89.9801C174.998 91.5994 175.296 92.9986 175.893 94.1776C176.504 95.3565 177.363 96.2656 178.471 96.9048C179.579 97.544 180.893 97.8636 182.413 97.8636C183.421 97.8636 184.344 97.7216 185.183 97.4375C186.021 97.1534 186.738 96.7273 187.335 96.1591C187.931 95.5909 188.386 94.8949 188.698 94.071L197.093 94.625C196.667 96.642 195.793 98.4034 194.472 99.9091C193.165 101.401 191.475 102.565 189.401 103.403C187.342 104.227 184.962 104.639 182.263 104.639ZM8.42756 163.554C7.02131 163.554 5.81392 163.057 4.8054 162.062C3.81108 161.054 3.31392 159.847 3.31392 158.44C3.31392 157.048 3.81108 155.855 4.8054 154.861C5.81392 153.866 7.02131 153.369 8.42756 153.369C9.79119 153.369 10.9844 153.866 12.0071 154.861C13.0298 155.855 13.5412 157.048 13.5412 158.44C13.5412 159.378 13.2997 160.237 12.8168 161.018C12.348 161.786 11.7301 162.403 10.9631 162.872C10.196 163.327 9.35085 163.554 8.42756 163.554ZM17.9933 163V130.273H27.07V163H17.9933ZM22.5529 126.054C21.2035 126.054 20.0458 125.607 19.0799 124.712C18.1282 123.803 17.6523 122.716 17.6523 121.452C17.6523 120.202 18.1282 119.129 19.0799 118.234C20.0458 117.325 21.2035 116.871 22.5529 116.871C23.9023 116.871 25.0529 117.325 26.0046 118.234C26.9705 119.129 27.4535 120.202 27.4535 121.452C27.4535 122.716 26.9705 123.803 26.0046 124.712C25.0529 125.607 23.9023 126.054 22.5529 126.054ZM43.4006 163.533C40.9148 163.533 38.6634 162.893 36.6463 161.615C34.6435 160.322 33.0526 158.426 31.8736 155.926C30.7088 153.412 30.1264 150.33 30.1264 146.679C30.1264 142.929 30.7301 139.811 31.9375 137.325C33.1449 134.825 34.75 132.957 36.7528 131.722C38.7699 130.472 40.9787 129.847 43.3793 129.847C45.2116 129.847 46.7386 130.159 47.9602 130.784C49.196 131.395 50.1903 132.162 50.9432 133.085C51.7102 133.994 52.2926 134.889 52.6903 135.77H52.9673V119.364H62.0227V163H53.0739V157.759H52.6903C52.2642 158.668 51.6605 159.57 50.8793 160.464C50.1122 161.345 49.1108 162.077 47.875 162.659C46.6534 163.241 45.1619 163.533 43.4006 163.533ZM46.277 156.31C47.7401 156.31 48.9759 155.912 49.9844 155.116C51.0071 154.307 51.7884 153.178 52.3281 151.729C52.8821 150.28 53.1591 148.582 53.1591 146.636C53.1591 144.69 52.8892 143 52.3494 141.565C51.8097 140.131 51.0284 139.023 50.0057 138.241C48.983 137.46 47.7401 137.07 46.277 137.07C44.7855 137.07 43.5284 137.474 42.5057 138.284C41.483 139.094 40.7088 140.216 40.1832 141.651C39.6577 143.085 39.3949 144.747 39.3949 146.636C39.3949 148.54 39.6577 150.223 40.1832 151.686C40.723 153.135 41.4972 154.271 42.5057 155.095C43.5284 155.905 44.7855 156.31 46.277 156.31Z" fill="#ECECE6"/>
</svg>
