<svg width="44" height="44" viewBox="0 0 44 44" fill="none" xmlns="http://www.w3.org/2000/svg">
<rect width="44" height="44" rx="8" fill="#3E3E08"/>
<path d="M22 19C22.7956 19 23.5587 19.3161 24.1213 19.8787C24.6839 20.4413 25 21.2044 25 22C25 22.7956 24.6839 23.5587 24.1213 24.1213C23.5587 24.6839 22.7956 25 22 25C21.2044 25 20.4413 24.6839 19.8787 24.1213C19.3161 23.5587 19 22.7956 19 22C19 21.2044 19.3161 20.4413 19.8787 19.8787C20.4413 19.3161 21.2044 19 22 19ZM22 14.5C27 14.5 31.27 17.61 33 22C31.27 26.39 27 29.5 22 29.5C17 29.5 12.73 26.39 11 22C12.73 17.61 17 14.5 22 14.5ZM13.18 22C13.9883 23.6503 15.2433 25.0407 16.8025 26.0133C18.3617 26.9858 20.1624 27.5013 22 27.5013C23.8376 27.5013 25.6383 26.9858 27.1975 26.0133C28.7567 25.0407 30.0117 23.6503 30.82 22C30.0117 20.3497 28.7567 18.9593 27.1975 17.9867C25.6383 17.0142 23.8376 16.4987 22 16.4987C20.1624 16.4987 18.3617 17.0142 16.8025 17.9867C15.2433 18.9593 13.9883 20.3497 13.18 22Z" fill="white"/>
</svg>
