<svg width="28" height="27" viewBox="0 0 28 27" fill="none" xmlns="http://www.w3.org/2000/svg">
<g clip-path="url(#clip0_4371_7852)">
<path d="M0.265625 13.5C0.265625 20.9558 6.30978 27 13.7656 27C21.2215 27 27.2656 20.9558 27.2656 13.5C27.2656 6.04416 21.2215 0 13.7656 0C6.30978 0 0.265625 6.04416 0.265625 13.5Z" fill="#F00073"/>
<path d="M13.7648 7.76172C15.6211 7.76172 15.8742 7.76172 16.6336 7.76172C17.3086 7.76172 17.6461 7.93047 17.8992 8.01484C18.2367 8.18359 18.4898 8.26797 18.743 8.52109C18.9961 8.77422 19.1648 9.02734 19.2492 9.36484C19.3336 9.61797 19.418 9.95547 19.5023 10.6305C19.5023 11.3898 19.5023 11.5586 19.5023 13.4992C19.5023 15.4398 19.5023 15.6086 19.5023 16.368C19.5023 17.043 19.3336 17.3805 19.2492 17.6336C19.0805 17.9711 18.9961 18.2242 18.743 18.4773C18.4898 18.7305 18.2367 18.8992 17.8992 18.9836C17.6461 19.068 17.3086 19.1523 16.6336 19.2367C15.8742 19.2367 15.7055 19.2367 13.7648 19.2367C11.8242 19.2367 11.6555 19.2367 10.8961 19.2367C10.2211 19.2367 9.88359 19.068 9.63047 18.9836C9.29297 18.8148 9.03984 18.7305 8.78672 18.4773C8.53359 18.2242 8.36484 17.9711 8.28047 17.6336C8.19609 17.3805 8.11172 17.043 8.02734 16.368C8.02734 15.6086 8.02734 15.4398 8.02734 13.4992C8.02734 11.5586 8.02734 11.3898 8.02734 10.6305C8.02734 9.95547 8.19609 9.61797 8.28047 9.36484C8.44922 9.02734 8.53359 8.77422 8.78672 8.52109C9.03984 8.26797 9.29297 8.09922 9.63047 8.01484C9.88359 7.93047 10.2211 7.84609 10.8961 7.76172C11.6555 7.76172 11.9086 7.76172 13.7648 7.76172ZM13.7648 6.49609C11.8242 6.49609 11.6555 6.49609 10.8961 6.49609C10.1367 6.49609 9.63047 6.66484 9.20859 6.83359C8.78672 7.00234 8.36484 7.25547 7.94297 7.67734C7.52109 8.09922 7.35234 8.43672 7.09922 8.94297C6.93047 9.36484 6.84609 9.87109 6.76172 10.6305C6.76172 11.3898 6.76172 11.643 6.76172 13.4992C6.76172 15.4398 6.76172 15.6086 6.76172 16.368C6.76172 17.1273 6.93047 17.6336 7.09922 18.0555C7.26797 18.4773 7.52109 18.8992 7.94297 19.3211C8.36484 19.743 8.70234 19.9117 9.20859 20.1648C9.63047 20.3336 10.1367 20.418 10.8961 20.5023C11.6555 20.5023 11.9086 20.5023 13.7648 20.5023C15.6211 20.5023 15.8742 20.5023 16.6336 20.5023C17.393 20.5023 17.8992 20.3336 18.3211 20.1648C18.743 19.9961 19.1648 19.743 19.5867 19.3211C20.0086 18.8992 20.1773 18.5617 20.4305 18.0555C20.5992 17.6336 20.6836 17.1273 20.768 16.368C20.768 15.6086 20.768 15.3555 20.768 13.4992C20.768 11.643 20.768 11.3898 20.768 10.6305C20.768 9.87109 20.5992 9.36484 20.4305 8.94297C20.2617 8.52109 20.0086 8.09922 19.5867 7.67734C19.1648 7.25547 18.8273 7.08672 18.3211 6.83359C17.8992 6.66484 17.393 6.58047 16.6336 6.49609C15.8742 6.49609 15.7055 6.49609 13.7648 6.49609Z" fill="white"/>
<path d="M13.7648 9.87109C11.7398 9.87109 10.1367 11.4742 10.1367 13.4992C10.1367 15.5242 11.7398 17.1273 13.7648 17.1273C15.7898 17.1273 17.393 15.5242 17.393 13.4992C17.393 11.4742 15.7898 9.87109 13.7648 9.87109ZM13.7648 15.8617C12.4992 15.8617 11.4023 14.8492 11.4023 13.4992C11.4023 12.2336 12.4148 11.1367 13.7648 11.1367C15.0305 11.1367 16.1273 12.1492 16.1273 13.4992C16.1273 14.7648 15.0305 15.8617 13.7648 15.8617Z" fill="white"/>
<path d="M17.4773 10.6305C17.9433 10.6305 18.3211 10.2527 18.3211 9.78672C18.3211 9.32073 17.9433 8.94297 17.4773 8.94297C17.0114 8.94297 16.6336 9.32073 16.6336 9.78672C16.6336 10.2527 17.0114 10.6305 17.4773 10.6305Z" fill="white"/>
</g>
<defs>
<clipPath id="clip0_4371_7852">
<rect width="27" height="27" fill="white" transform="translate(0.265625)"/>
</clipPath>
</defs>
</svg>
