<svg width="75" height="39" viewBox="0 0 75 39" fill="none" xmlns="http://www.w3.org/2000/svg">
<rect x="1" y="1" width="73" height="37" rx="18.5" fill="#3E3E08"/>
<rect x="1" y="1" width="73" height="37" rx="18.5" stroke="#3E3E08" stroke-width="2"/>
<path d="M21.2784 25V13.3636H25.4261C26.3314 13.3636 27.0814 13.5284 27.6761 13.858C28.2708 14.1875 28.7159 14.6383 29.0114 15.2102C29.3068 15.7784 29.4545 16.4186 29.4545 17.1307C29.4545 17.8466 29.3049 18.4905 29.0057 19.0625C28.7102 19.6307 28.2633 20.0814 27.6648 20.4148C27.0701 20.7443 26.322 20.9091 25.4205 20.9091H22.5682V19.4205H25.2614C25.8333 19.4205 26.2973 19.322 26.6534 19.125C27.0095 18.9242 27.2708 18.6515 27.4375 18.3068C27.6042 17.9621 27.6875 17.5701 27.6875 17.1307C27.6875 16.6913 27.6042 16.3011 27.4375 15.9602C27.2708 15.6193 27.0076 15.3523 26.6477 15.1591C26.2917 14.9659 25.822 14.8693 25.2386 14.8693H23.0341V25H21.2784ZM34.9432 25.1761C34.125 25.1761 33.411 24.9886 32.8011 24.6136C32.1913 24.2386 31.7178 23.714 31.3807 23.0398C31.0436 22.3655 30.875 21.5777 30.875 20.6761C30.875 19.7708 31.0436 18.9792 31.3807 18.3011C31.7178 17.6231 32.1913 17.0966 32.8011 16.7216C33.411 16.3466 34.125 16.1591 34.9432 16.1591C35.7614 16.1591 36.4754 16.3466 37.0852 16.7216C37.6951 17.0966 38.1686 17.6231 38.5057 18.3011C38.8428 18.9792 39.0114 19.7708 39.0114 20.6761C39.0114 21.5777 38.8428 22.3655 38.5057 23.0398C38.1686 23.714 37.6951 24.2386 37.0852 24.6136C36.4754 24.9886 35.7614 25.1761 34.9432 25.1761ZM34.9489 23.75C35.4792 23.75 35.9186 23.6098 36.267 23.3295C36.6155 23.0492 36.8731 22.6761 37.0398 22.2102C37.2102 21.7443 37.2955 21.2311 37.2955 20.6705C37.2955 20.1136 37.2102 19.6023 37.0398 19.1364C36.8731 18.6667 36.6155 18.2898 36.267 18.0057C35.9186 17.7216 35.4792 17.5795 34.9489 17.5795C34.4148 17.5795 33.9716 17.7216 33.6193 18.0057C33.2708 18.2898 33.0114 18.6667 32.8409 19.1364C32.6742 19.6023 32.5909 20.1136 32.5909 20.6705C32.5909 21.2311 32.6742 21.7443 32.8409 22.2102C33.0114 22.6761 33.2708 23.0492 33.6193 23.3295C33.9716 23.6098 34.4148 23.75 34.9489 23.75ZM47.4474 18.4034L45.9077 18.6761C45.8433 18.4792 45.741 18.2917 45.6009 18.1136C45.4645 17.9356 45.2789 17.7898 45.044 17.6761C44.8092 17.5625 44.5156 17.5057 44.1634 17.5057C43.6823 17.5057 43.2808 17.6136 42.9588 17.8295C42.6368 18.0417 42.4759 18.3163 42.4759 18.6534C42.4759 18.9451 42.5838 19.1799 42.7997 19.358C43.0156 19.536 43.3641 19.6818 43.8452 19.7955L45.2315 20.1136C46.0346 20.2992 46.633 20.5852 47.027 20.9716C47.4209 21.358 47.6179 21.8598 47.6179 22.4773C47.6179 23 47.4664 23.4659 47.1634 23.875C46.8641 24.2803 46.4455 24.5985 45.9077 24.8295C45.3736 25.0606 44.7543 25.1761 44.0497 25.1761C43.0724 25.1761 42.2751 24.9678 41.6577 24.5511C41.0402 24.1307 40.6615 23.5341 40.5213 22.7614L42.1634 22.5114C42.2656 22.9394 42.4759 23.2633 42.794 23.483C43.1122 23.6989 43.527 23.8068 44.0384 23.8068C44.5952 23.8068 45.0402 23.6913 45.3736 23.4602C45.7069 23.2254 45.8736 22.9394 45.8736 22.6023C45.8736 22.3295 45.7713 22.1004 45.5668 21.9148C45.366 21.7292 45.0573 21.589 44.6406 21.4943L43.1634 21.1705C42.349 20.9848 41.7467 20.6894 41.3565 20.2841C40.9702 19.8788 40.777 19.3655 40.777 18.7443C40.777 18.2292 40.9209 17.7784 41.2088 17.392C41.4967 17.0057 41.8944 16.7045 42.402 16.4886C42.9096 16.2689 43.491 16.1591 44.1463 16.1591C45.0895 16.1591 45.8319 16.3636 46.3736 16.7727C46.9152 17.178 47.2732 17.7216 47.4474 18.4034ZM53.5597 16.2727V17.6364H48.7926V16.2727H53.5597ZM50.071 14.1818H51.7699V22.4375C51.7699 22.767 51.8191 23.0152 51.9176 23.1818C52.0161 23.3447 52.143 23.4564 52.2983 23.517C52.4574 23.5739 52.6297 23.6023 52.8153 23.6023C52.9517 23.6023 53.071 23.5928 53.1733 23.5739C53.2756 23.5549 53.3551 23.5398 53.4119 23.5284L53.7188 24.9318C53.6203 24.9697 53.4801 25.0076 53.2983 25.0455C53.1165 25.0871 52.8892 25.1098 52.6165 25.1136C52.1695 25.1212 51.7528 25.0417 51.3665 24.875C50.9801 24.7083 50.6676 24.4508 50.429 24.1023C50.1903 23.7538 50.071 23.3163 50.071 22.7898V14.1818Z" fill="#ECECE6"/>
</svg>
