<svg width="150" height="39" viewBox="0 0 150 39" fill="none" xmlns="http://www.w3.org/2000/svg">
<rect x="1" y="1" width="148" height="37" rx="18.5" fill="#3E3E08"/>
<rect x="1" y="1" width="148" height="37" rx="18.5" stroke="#3E3E08" stroke-width="2"/>
<path d="M21.2784 25V13.3636H25.4261C26.3314 13.3636 27.0814 13.5284 27.6761 13.858C28.2708 14.1875 28.7159 14.6383 29.0114 15.2102C29.3068 15.7784 29.4545 16.4186 29.4545 17.1307C29.4545 17.8466 29.3049 18.4905 29.0057 19.0625C28.7102 19.6307 28.2633 20.0814 27.6648 20.4148C27.0701 20.7443 26.322 20.9091 25.4205 20.9091H22.5682V19.4205H25.2614C25.8333 19.4205 26.2973 19.322 26.6534 19.125C27.0095 18.9242 27.2708 18.6515 27.4375 18.3068C27.6042 17.9621 27.6875 17.5701 27.6875 17.1307C27.6875 16.6913 27.6042 16.3011 27.4375 15.9602C27.2708 15.6193 27.0076 15.3523 26.6477 15.1591C26.2917 14.9659 25.822 14.8693 25.2386 14.8693H23.0341V25H21.2784ZM34.9432 25.1761C34.125 25.1761 33.411 24.9886 32.8011 24.6136C32.1913 24.2386 31.7178 23.714 31.3807 23.0398C31.0436 22.3655 30.875 21.5777 30.875 20.6761C30.875 19.7708 31.0436 18.9792 31.3807 18.3011C31.7178 17.6231 32.1913 17.0966 32.8011 16.7216C33.411 16.3466 34.125 16.1591 34.9432 16.1591C35.7614 16.1591 36.4754 16.3466 37.0852 16.7216C37.6951 17.0966 38.1686 17.6231 38.5057 18.3011C38.8428 18.9792 39.0114 19.7708 39.0114 20.6761C39.0114 21.5777 38.8428 22.3655 38.5057 23.0398C38.1686 23.714 37.6951 24.2386 37.0852 24.6136C36.4754 24.9886 35.7614 25.1761 34.9432 25.1761ZM34.9489 23.75C35.4792 23.75 35.9186 23.6098 36.267 23.3295C36.6155 23.0492 36.8731 22.6761 37.0398 22.2102C37.2102 21.7443 37.2955 21.2311 37.2955 20.6705C37.2955 20.1136 37.2102 19.6023 37.0398 19.1364C36.8731 18.6667 36.6155 18.2898 36.267 18.0057C35.9186 17.7216 35.4792 17.5795 34.9489 17.5795C34.4148 17.5795 33.9716 17.7216 33.6193 18.0057C33.2708 18.2898 33.0114 18.6667 32.8409 19.1364C32.6742 19.6023 32.5909 20.1136 32.5909 20.6705C32.5909 21.2311 32.6742 21.7443 32.8409 22.2102C33.0114 22.6761 33.2708 23.0492 33.6193 23.3295C33.9716 23.6098 34.4148 23.75 34.9489 23.75ZM47.4474 18.4034L45.9077 18.6761C45.8433 18.4792 45.741 18.2917 45.6009 18.1136C45.4645 17.9356 45.2789 17.7898 45.044 17.6761C44.8092 17.5625 44.5156 17.5057 44.1634 17.5057C43.6823 17.5057 43.2808 17.6136 42.9588 17.8295C42.6368 18.0417 42.4759 18.3163 42.4759 18.6534C42.4759 18.9451 42.5838 19.1799 42.7997 19.358C43.0156 19.536 43.3641 19.6818 43.8452 19.7955L45.2315 20.1136C46.0346 20.2992 46.633 20.5852 47.027 20.9716C47.4209 21.358 47.6179 21.8598 47.6179 22.4773C47.6179 23 47.4664 23.4659 47.1634 23.875C46.8641 24.2803 46.4455 24.5985 45.9077 24.8295C45.3736 25.0606 44.7543 25.1761 44.0497 25.1761C43.0724 25.1761 42.2751 24.9678 41.6577 24.5511C41.0402 24.1307 40.6615 23.5341 40.5213 22.7614L42.1634 22.5114C42.2656 22.9394 42.4759 23.2633 42.794 23.483C43.1122 23.6989 43.527 23.8068 44.0384 23.8068C44.5952 23.8068 45.0402 23.6913 45.3736 23.4602C45.7069 23.2254 45.8736 22.9394 45.8736 22.6023C45.8736 22.3295 45.7713 22.1004 45.5668 21.9148C45.366 21.7292 45.0573 21.589 44.6406 21.4943L43.1634 21.1705C42.349 20.9848 41.7467 20.6894 41.3565 20.2841C40.9702 19.8788 40.777 19.3655 40.777 18.7443C40.777 18.2292 40.9209 17.7784 41.2088 17.392C41.4967 17.0057 41.8944 16.7045 42.402 16.4886C42.9096 16.2689 43.491 16.1591 44.1463 16.1591C45.0895 16.1591 45.8319 16.3636 46.3736 16.7727C46.9152 17.178 47.2732 17.7216 47.4474 18.4034ZM53.5597 16.2727V17.6364H48.7926V16.2727H53.5597ZM50.071 14.1818H51.7699V22.4375C51.7699 22.767 51.8191 23.0152 51.9176 23.1818C52.0161 23.3447 52.143 23.4564 52.2983 23.517C52.4574 23.5739 52.6297 23.6023 52.8153 23.6023C52.9517 23.6023 53.071 23.5928 53.1733 23.5739C53.2756 23.5549 53.3551 23.5398 53.4119 23.5284L53.7188 24.9318C53.6203 24.9697 53.4801 25.0076 53.2983 25.0455C53.1165 25.0871 52.8892 25.1098 52.6165 25.1136C52.1695 25.1212 51.7528 25.0417 51.3665 24.875C50.9801 24.7083 50.6676 24.4508 50.429 24.1023C50.1903 23.7538 50.071 23.3163 50.071 22.7898V14.1818ZM59.8097 25V13.3636H67.1051V14.875H61.5653V18.4205H66.7244V19.9261H61.5653V23.4886H67.1733V25H59.8097ZM72.9901 25.1761C72.1454 25.1761 71.4181 24.9848 70.8082 24.6023C70.2022 24.2159 69.7363 23.6837 69.4105 23.0057C69.0848 22.3277 68.9219 21.5511 68.9219 20.6761C68.9219 19.7898 69.0885 19.0076 69.4219 18.3295C69.7552 17.6477 70.2249 17.1155 70.831 16.733C71.437 16.3504 72.151 16.1591 72.973 16.1591C73.6359 16.1591 74.2268 16.2822 74.7457 16.5284C75.2647 16.7708 75.6832 17.1117 76.0014 17.5511C76.3234 17.9905 76.5147 18.5038 76.5753 19.0909H74.9219C74.831 18.6818 74.6226 18.3295 74.2969 18.0341C73.9749 17.7386 73.5431 17.5909 73.0014 17.5909C72.5279 17.5909 72.1132 17.7159 71.7571 17.9659C71.4048 18.2121 71.1302 18.5644 70.9332 19.0227C70.7363 19.4773 70.6378 20.0152 70.6378 20.6364C70.6378 21.2727 70.7344 21.822 70.9276 22.2841C71.1207 22.7462 71.3935 23.1042 71.7457 23.358C72.1018 23.6117 72.5204 23.7386 73.0014 23.7386C73.3234 23.7386 73.6151 23.6799 73.8764 23.5625C74.1416 23.4413 74.3632 23.2689 74.5412 23.0455C74.723 22.822 74.8499 22.553 74.9219 22.2386H76.5753C76.5147 22.803 76.331 23.3068 76.0241 23.75C75.7173 24.1932 75.3063 24.5417 74.7912 24.7955C74.2798 25.0492 73.6795 25.1761 72.9901 25.1761ZM82.0682 25.1761C81.25 25.1761 80.536 24.9886 79.9261 24.6136C79.3163 24.2386 78.8428 23.714 78.5057 23.0398C78.1686 22.3655 78 21.5777 78 20.6761C78 19.7708 78.1686 18.9792 78.5057 18.3011C78.8428 17.6231 79.3163 17.0966 79.9261 16.7216C80.536 16.3466 81.25 16.1591 82.0682 16.1591C82.8864 16.1591 83.6004 16.3466 84.2102 16.7216C84.8201 17.0966 85.2936 17.6231 85.6307 18.3011C85.9678 18.9792 86.1364 19.7708 86.1364 20.6761C86.1364 21.5777 85.9678 22.3655 85.6307 23.0398C85.2936 23.714 84.8201 24.2386 84.2102 24.6136C83.6004 24.9886 82.8864 25.1761 82.0682 25.1761ZM82.0739 23.75C82.6042 23.75 83.0436 23.6098 83.392 23.3295C83.7405 23.0492 83.9981 22.6761 84.1648 22.2102C84.3352 21.7443 84.4205 21.2311 84.4205 20.6705C84.4205 20.1136 84.3352 19.6023 84.1648 19.1364C83.9981 18.6667 83.7405 18.2898 83.392 18.0057C83.0436 17.7216 82.6042 17.5795 82.0739 17.5795C81.5398 17.5795 81.0966 17.7216 80.7443 18.0057C80.3958 18.2898 80.1364 18.6667 79.9659 19.1364C79.7992 19.6023 79.7159 20.1136 79.7159 20.6705C79.7159 21.2311 79.7992 21.7443 79.9659 22.2102C80.1364 22.6761 80.3958 23.0492 80.7443 23.3295C81.0966 23.6098 81.5398 23.75 82.0739 23.75ZM88.0327 28.2727V16.2727H89.6918V17.6875H89.8338C89.9323 17.5057 90.0743 17.2955 90.2599 17.0568C90.4455 16.8182 90.7031 16.6098 91.0327 16.4318C91.3622 16.25 91.7978 16.1591 92.3395 16.1591C93.044 16.1591 93.6728 16.3371 94.2259 16.6932C94.7789 17.0492 95.2126 17.5625 95.527 18.233C95.8452 18.9034 96.0043 19.7102 96.0043 20.6534C96.0043 21.5966 95.8471 22.4053 95.5327 23.0795C95.2183 23.75 94.7865 24.267 94.2372 24.6307C93.688 24.9905 93.0611 25.1705 92.3565 25.1705C91.8262 25.1705 91.3925 25.0814 91.0554 24.9034C90.7221 24.7254 90.4607 24.517 90.2713 24.2784C90.0819 24.0398 89.9361 23.8277 89.8338 23.642H89.7315V28.2727H88.0327ZM89.6974 20.6364C89.6974 21.25 89.7865 21.7879 89.9645 22.25C90.1425 22.7121 90.4001 23.0739 90.7372 23.3352C91.0743 23.5928 91.4872 23.7216 91.9759 23.7216C92.4834 23.7216 92.9077 23.5871 93.2486 23.3182C93.5895 23.0455 93.8471 22.6761 94.0213 22.2102C94.1993 21.7443 94.2884 21.2197 94.2884 20.6364C94.2884 20.0606 94.2012 19.5436 94.027 19.0852C93.8565 18.6269 93.599 18.2652 93.2543 18C92.9134 17.7348 92.4872 17.6023 91.9759 17.6023C91.4834 17.6023 91.0668 17.7292 90.7259 17.983C90.3887 18.2367 90.133 18.5909 89.9588 19.0455C89.7846 19.5 89.6974 20.0303 89.6974 20.6364ZM101.669 25.1761C100.809 25.1761 100.069 24.9924 99.4474 24.625C98.83 24.2538 98.3527 23.733 98.0156 23.0625C97.6823 22.3883 97.5156 21.5985 97.5156 20.6932C97.5156 19.7992 97.6823 19.0114 98.0156 18.3295C98.3527 17.6477 98.8224 17.1155 99.4247 16.733C100.031 16.3504 100.739 16.1591 101.55 16.1591C102.042 16.1591 102.519 16.2405 102.982 16.4034C103.444 16.5663 103.858 16.822 104.226 17.1705C104.593 17.5189 104.883 17.9716 105.095 18.5284C105.307 19.0814 105.413 19.7538 105.413 20.5455V21.1477H98.4759V19.875H103.749C103.749 19.428 103.658 19.0322 103.476 18.6875C103.294 18.339 103.038 18.0644 102.709 17.8636C102.383 17.6629 102 17.5625 101.561 17.5625C101.084 17.5625 100.667 17.6799 100.311 17.9148C99.9588 18.1458 99.6861 18.4489 99.4929 18.8239C99.3035 19.1951 99.2088 19.5985 99.2088 20.0341V21.0284C99.2088 21.6117 99.3111 22.108 99.5156 22.517C99.724 22.9261 100.014 23.2386 100.385 23.4545C100.756 23.6667 101.19 23.7727 101.686 23.7727C102.008 23.7727 102.302 23.7273 102.567 23.6364C102.832 23.5417 103.061 23.4015 103.254 23.2159C103.447 23.0303 103.595 22.8011 103.697 22.5284L105.305 22.8182C105.177 23.2917 104.946 23.7064 104.612 24.0625C104.283 24.4148 103.868 24.6894 103.368 24.8864C102.872 25.0795 102.305 25.1761 101.669 25.1761ZM110.565 25.1705C109.861 25.1705 109.232 24.9905 108.679 24.6307C108.13 24.267 107.698 23.75 107.384 23.0795C107.073 22.4053 106.918 21.5966 106.918 20.6534C106.918 19.7102 107.075 18.9034 107.389 18.233C107.707 17.5625 108.143 17.0492 108.696 16.6932C109.249 16.3371 109.876 16.1591 110.577 16.1591C111.118 16.1591 111.554 16.25 111.884 16.4318C112.217 16.6098 112.474 16.8182 112.656 17.0568C112.842 17.2955 112.986 17.5057 113.088 17.6875H113.19V13.3636H114.889V25H113.23V23.642H113.088C112.986 23.8277 112.838 24.0398 112.645 24.2784C112.455 24.517 112.194 24.7254 111.861 24.9034C111.527 25.0814 111.096 25.1705 110.565 25.1705ZM110.94 23.7216C111.429 23.7216 111.842 23.5928 112.179 23.3352C112.52 23.0739 112.777 22.7121 112.952 22.25C113.13 21.7879 113.219 21.25 113.219 20.6364C113.219 20.0303 113.132 19.5 112.957 19.0455C112.783 18.5909 112.527 18.2367 112.19 17.983C111.853 17.7292 111.437 17.6023 110.94 17.6023C110.429 17.6023 110.003 17.7348 109.662 18C109.321 18.2652 109.063 18.6269 108.889 19.0852C108.719 19.5436 108.634 20.0606 108.634 20.6364C108.634 21.2197 108.721 21.7443 108.895 22.2102C109.069 22.6761 109.327 23.0455 109.668 23.3182C110.012 23.5871 110.437 23.7216 110.94 23.7216ZM117.314 25V16.2727H119.013V25H117.314ZM118.172 14.9261C117.876 14.9261 117.623 14.8277 117.411 14.6307C117.202 14.4299 117.098 14.1913 117.098 13.9148C117.098 13.6345 117.202 13.3958 117.411 13.1989C117.623 12.9981 117.876 12.8977 118.172 12.8977C118.467 12.8977 118.719 12.9981 118.928 13.1989C119.14 13.3958 119.246 13.6345 119.246 13.9148C119.246 14.1913 119.14 14.4299 118.928 14.6307C118.719 14.8277 118.467 14.9261 118.172 14.9261ZM123.838 25.1932C123.285 25.1932 122.785 25.0909 122.338 24.8864C121.891 24.678 121.537 24.3769 121.276 23.983C121.018 23.589 120.889 23.1061 120.889 22.5341C120.889 22.0417 120.984 21.6364 121.173 21.3182C121.363 21 121.618 20.7481 121.94 20.5625C122.262 20.3769 122.622 20.2367 123.02 20.142C123.418 20.0473 123.823 19.9754 124.236 19.9261C124.759 19.8655 125.183 19.8163 125.509 19.7784C125.834 19.7367 126.071 19.6705 126.219 19.5795C126.366 19.4886 126.44 19.3409 126.44 19.1364V19.0966C126.44 18.6004 126.3 18.2159 126.02 17.9432C125.743 17.6705 125.33 17.5341 124.781 17.5341C124.209 17.5341 123.759 17.661 123.429 17.9148C123.103 18.1648 122.878 18.4432 122.753 18.75L121.156 18.3864C121.346 17.8561 121.622 17.428 121.986 17.1023C122.353 16.7727 122.776 16.5341 123.253 16.3864C123.73 16.2348 124.232 16.1591 124.759 16.1591C125.107 16.1591 125.476 16.2008 125.866 16.2841C126.26 16.3636 126.628 16.5114 126.969 16.7273C127.313 16.9432 127.596 17.2519 127.815 17.6534C128.035 18.0511 128.145 18.5682 128.145 19.2045V25H126.486V23.8068H126.418C126.308 24.0265 126.143 24.2424 125.923 24.4545C125.704 24.6667 125.421 24.8428 125.077 24.983C124.732 25.1231 124.319 25.1932 123.838 25.1932ZM124.207 23.8295C124.677 23.8295 125.079 23.7367 125.412 23.5511C125.749 23.3655 126.005 23.1231 126.179 22.8239C126.357 22.5208 126.446 22.197 126.446 21.8523V20.7273C126.385 20.7879 126.268 20.8447 126.094 20.8977C125.923 20.947 125.728 20.9905 125.509 21.0284C125.289 21.0625 125.075 21.0947 124.866 21.125C124.658 21.1515 124.484 21.1742 124.344 21.1932C124.014 21.2348 123.713 21.3049 123.44 21.4034C123.171 21.5019 122.955 21.6439 122.793 21.8295C122.634 22.0114 122.554 22.2538 122.554 22.5568C122.554 22.9773 122.709 23.2955 123.02 23.5114C123.33 23.7235 123.726 23.8295 124.207 23.8295Z" fill="#ECECE6"/>
</svg>
