<svg width="29" height="29" viewBox="0 0 29 29" fill="none" xmlns="http://www.w3.org/2000/svg">
<circle cx="14.2656" cy="14.5" r="14" fill="#2E64CD"/>
<path d="M16.263 11.168H18.263C18.7008 11.168 19.1342 11.2542 19.5386 11.4217C19.9431 11.5892 20.3105 11.8348 20.62 12.1443C20.9296 12.4538 21.1751 12.8213 21.3426 13.2257C21.5101 13.6301 21.5964 14.0636 21.5964 14.5013C21.5964 14.939 21.5101 15.3725 21.3426 15.7769C21.1751 16.1813 20.9296 16.5488 20.62 16.8583C20.3105 17.1679 19.9431 17.4134 19.5386 17.5809C19.1342 17.7484 18.7008 17.8346 18.263 17.8346H16.263M12.263 17.8346H10.263C9.82528 17.8346 9.39183 17.7484 8.98741 17.5809C8.58299 17.4134 8.21553 17.1679 7.906 16.8583C7.28088 16.2332 6.92969 15.3854 6.92969 14.5013C6.92969 13.6172 7.28088 12.7694 7.906 12.1443C8.53112 11.5192 9.37897 11.168 10.263 11.168H12.263M11.5964 14.5013H16.9297" stroke="white" stroke-width="2" stroke-linecap="round" stroke-linejoin="round"/>
</svg>
