<svg width="20" height="24" viewBox="0 0 20 24" fill="none" xmlns="http://www.w3.org/2000/svg">
<path d="M19.0909 0H3.63636C2.67194 0 1.74702 0.383116 1.06507 1.06507C0.383116 1.74702 0 2.67194 0 3.63636V22.7273C0 22.9684 0.0957791 23.1996 0.266267 23.3701C0.436754 23.5406 0.667985 23.6364 0.909091 23.6364H17.2727C17.5138 23.6364 17.7451 23.5406 17.9156 23.3701C18.086 23.1996 18.1818 22.9684 18.1818 22.7273C18.1818 22.4862 18.086 22.2549 17.9156 22.0844C17.7451 21.914 17.5138 21.8182 17.2727 21.8182H1.81818C1.81818 21.336 2.00974 20.8735 2.35071 20.5325C2.69169 20.1916 3.15415 20 3.63636 20H19.0909C19.332 20 19.5632 19.9042 19.7337 19.7337C19.9042 19.5632 20 19.332 20 19.0909V0.909091C20 0.667985 19.9042 0.436754 19.7337 0.266267C19.5632 0.0957789 19.332 0 19.0909 0ZM9.09091 1.81818H14.5455V10L12.3625 8.36364C12.2051 8.24562 12.0137 8.18182 11.817 8.18182C11.6203 8.18182 11.429 8.24562 11.2716 8.36364L9.09091 10V1.81818ZM18.1818 18.1818H3.63636C2.99789 18.1809 2.37057 18.3491 1.81818 18.6693V3.63636C1.81818 3.15415 2.00974 2.69169 2.35071 2.35071C2.69169 2.00974 3.15415 1.81818 3.63636 1.81818H7.27273V11.8182C7.27273 11.987 7.31974 12.1525 7.4085 12.2961C7.49726 12.4397 7.62426 12.5558 7.77526 12.6313C7.92627 12.7068 8.09531 12.7388 8.26346 12.7236C8.43161 12.7084 8.59221 12.6468 8.72727 12.5455L11.8182 10.2273L14.9102 12.5455C15.0673 12.6632 15.2582 12.727 15.4545 12.7273C15.6957 12.7273 15.9269 12.6315 16.0974 12.461C16.2679 12.2905 16.3636 12.0593 16.3636 11.8182V1.81818H18.1818V18.1818Z" fill="white"/>
</svg>
