<svg width="26" height="26" viewBox="0 0 26 26" fill="none" xmlns="http://www.w3.org/2000/svg">
<path d="M14.159 11.2775C14.8171 10.358 15.1709 9.25567 15.1709 8.12498C15.1709 6.99429 14.8171 5.89194 14.159 4.97248C14.7749 4.55209 15.5042 4.32916 16.2498 4.33331C17.2554 4.33331 18.2199 4.73279 18.931 5.44386C19.642 6.15494 20.0415 7.11936 20.0415 8.12498C20.0415 9.13059 19.642 10.095 18.931 10.8061C18.2199 11.5172 17.2554 11.9166 16.2498 11.9166C15.5042 11.9208 14.7749 11.6979 14.159 11.2775ZM5.95817 8.12498C5.95817 7.37506 6.18055 6.64197 6.59718 6.01844C7.01381 5.3949 7.60599 4.90891 8.29883 4.62193C8.99166 4.33495 9.75404 4.25986 10.4896 4.40616C11.2251 4.55247 11.9007 4.91359 12.4309 5.44386C12.9612 5.97414 13.3223 6.64975 13.4686 7.38526C13.615 8.12077 13.5399 8.88315 13.2529 9.57598C12.9659 10.2688 12.4799 10.861 11.8564 11.2776C11.2328 11.6943 10.4998 11.9166 9.74984 11.9166C8.74422 11.9166 7.7798 11.5172 7.06872 10.8061C6.35765 10.095 5.95817 9.13059 5.95817 8.12498ZM8.12484 8.12498C8.12484 8.44637 8.22014 8.76055 8.3987 9.02778C8.57726 9.29501 8.83105 9.50329 9.12798 9.62628C9.42491 9.74927 9.75164 9.78145 10.0669 9.71875C10.3821 9.65605 10.6716 9.50128 10.8989 9.27402C11.1261 9.04676 11.2809 8.75722 11.3436 8.442C11.4063 8.12678 11.3741 7.80005 11.2511 7.50312C11.1281 7.20619 10.9199 6.9524 10.6526 6.77384C10.3854 6.59528 10.0712 6.49998 9.74984 6.49998C9.31886 6.49998 8.90553 6.67118 8.60079 6.97593C8.29604 7.28067 8.12484 7.694 8.12484 8.12498ZM17.3332 18.4166V20.5833H2.1665V18.4166C2.1665 18.4166 2.1665 14.0833 9.74984 14.0833C17.3332 14.0833 17.3332 18.4166 17.3332 18.4166ZM15.1665 18.4166C15.0148 17.5716 13.7257 16.25 9.74984 16.25C5.774 16.25 4.409 17.6691 4.33317 18.4166M17.279 14.0833C17.943 14.5998 18.4859 15.2553 18.8695 16.0039C19.2532 16.7525 19.4683 17.576 19.4998 18.4166V20.5833H23.8332V18.4166C23.8332 18.4166 23.8332 14.4841 17.2682 14.0833H17.279Z" fill="white"/>
</svg>
