<svg width="26" height="26" viewBox="0 0 26 26" fill="none" xmlns="http://www.w3.org/2000/svg">
<path d="M22.2801 3.07495L21.0801 3.47495C19.0236 4.1895 16.8274 4.40877 14.6701 4.11495C12.4033 3.76316 10.0831 4.07577 7.99014 5.01495C6.88062 5.4874 5.9069 6.22987 5.15762 7.17476C4.40834 8.11965 3.90731 9.23696 3.70014 10.425C3.48941 11.5674 3.51097 12.7406 3.76353 13.8745C4.01609 15.0085 4.49447 16.0799 5.17014 17.025C5.11014 17.235 5.05014 17.445 5.00014 17.655C4.59398 19.382 4.3926 21.1508 4.40014 22.925H6.40014C6.49414 21.4728 6.69131 20.0291 6.99014 18.605C8.37758 19.3542 9.9335 19.7362 11.5101 19.715C12.9806 19.7139 14.436 19.4181 15.7901 18.845C23.4001 15.595 22.4001 4.78495 22.4001 4.33495L22.2801 3.07495ZM15.0101 17.005C12.4001 18.115 9.28014 17.925 7.53014 16.555C7.82591 15.566 8.23179 14.6133 8.74014 13.715C9.13534 13.0684 9.60157 12.468 10.1301 11.925C10.6702 11.3761 11.2785 10.8989 11.9401 10.505C13.3072 9.6875 14.8233 9.1504 16.4001 8.92495V7.92495C14.5859 7.86215 12.7828 8.23236 11.1401 9.00495C9.46056 9.8245 8.03617 11.0864 7.02014 12.655C6.64331 13.254 6.30915 13.8789 6.02014 14.525C5.55666 13.3393 5.42528 12.0497 5.64014 10.795C5.78092 9.91648 6.14304 9.08833 6.69239 8.38852C7.24174 7.68871 7.96023 7.14029 8.78014 6.79495C9.97576 6.23611 11.2804 5.94923 12.6001 5.95495C13.2201 5.95495 13.8301 6.01495 14.4701 6.06495C16.4745 6.32355 18.5095 6.20484 20.4701 5.71495C20.4001 8.47495 19.9001 14.925 15.0101 17.005Z" fill="white"/>
</svg>
