<svg width="26" height="26" viewBox="0 0 26 26" fill="none" xmlns="http://www.w3.org/2000/svg">
<path d="M21.9375 4.26562H4.0625C3.6854 4.26563 3.32374 4.41543 3.05708 4.68208C2.79043 4.94874 2.64063 5.3104 2.64062 5.6875V20.3125C2.64062 20.6896 2.79043 21.0513 3.05708 21.3179C3.32374 21.5846 3.6854 21.7344 4.0625 21.7344H5.42242C5.53774 21.7343 5.65067 21.7016 5.74811 21.6399C5.84555 21.5783 5.9235 21.4902 5.97289 21.386C6.38439 20.517 7.03418 19.7826 7.84666 19.2684C8.65915 18.7541 9.60095 18.4811 10.5625 18.4811C11.5241 18.4811 12.4658 18.7541 13.2783 19.2684C14.0908 19.7826 14.7406 20.517 15.1521 21.386C15.2015 21.4902 15.2794 21.5783 15.3769 21.6399C15.4743 21.7016 15.5873 21.7343 15.7026 21.7344H21.9375C22.3146 21.7344 22.6763 21.5846 22.9429 21.3179C23.2096 21.0513 23.3594 20.6896 23.3594 20.3125V5.6875C23.3594 5.3104 23.2096 4.94874 22.9429 4.68208C22.6763 4.41543 22.3146 4.26563 21.9375 4.26562ZM7.92188 14.625C7.92188 14.1027 8.07675 13.5922 8.3669 13.1579C8.65706 12.7237 9.06947 12.3852 9.55198 12.1854C10.0345 11.9855 10.5654 11.9332 11.0777 12.0351C11.5899 12.137 12.0604 12.3885 12.4297 12.7578C12.799 13.1271 13.0505 13.5976 13.1524 14.1098C13.2543 14.6221 13.202 15.153 13.0021 15.6355C12.8023 16.118 12.4638 16.5304 12.0296 16.8206C11.5953 17.1108 11.0848 17.2656 10.5625 17.2656C9.86216 17.2656 9.19051 16.9874 8.6953 16.4922C8.20008 15.997 7.92188 15.3253 7.92188 14.625ZM22.1406 20.3125C22.1406 20.3664 22.1192 20.418 22.0811 20.4561C22.043 20.4942 21.9914 20.5156 21.9375 20.5156H16.0743C15.3637 19.2402 14.2343 18.2496 12.8771 17.7115C13.5254 17.2256 14.0043 16.5481 14.246 15.7749C14.4878 15.0017 14.4801 14.172 14.224 13.4034C13.968 12.6348 13.4765 11.9663 12.8194 11.4925C12.1622 11.0188 11.3726 10.7638 10.5625 10.7638C9.75238 10.7638 8.96279 11.0188 8.30563 11.4925C7.64846 11.9663 7.15703 12.6348 6.90097 13.4034C6.64492 14.172 6.63722 15.0017 6.87896 15.7749C7.1207 16.5481 7.59963 17.2256 8.24789 17.7115C6.89073 18.2496 5.76126 19.2402 5.0507 20.5156H4.0625C4.00863 20.5156 3.95696 20.4942 3.91887 20.4561C3.88078 20.418 3.85938 20.3664 3.85938 20.3125V5.6875C3.85938 5.63363 3.88078 5.58196 3.91887 5.54387C3.95696 5.50578 4.00863 5.48438 4.0625 5.48438H21.9375C21.9914 5.48438 22.043 5.50578 22.0811 5.54387C22.1192 5.58196 22.1406 5.63363 22.1406 5.6875V20.3125ZM20.1094 8.125V17.875C20.1094 18.0366 20.0452 18.1916 19.9309 18.3059C19.8166 18.4202 19.6616 18.4844 19.5 18.4844H17.875C17.7134 18.4844 17.5584 18.4202 17.4441 18.3059C17.3298 18.1916 17.2656 18.0366 17.2656 17.875C17.2656 17.7134 17.3298 17.5584 17.4441 17.4441C17.5584 17.3298 17.7134 17.2656 17.875 17.2656H18.8906V8.73438H7.10938V9.75C7.10938 9.91162 7.04517 10.0666 6.93089 10.1809C6.81661 10.2952 6.66162 10.3594 6.5 10.3594C6.33838 10.3594 6.18339 10.2952 6.06911 10.1809C5.95483 10.0666 5.89062 9.91162 5.89062 9.75V8.125C5.89062 7.96338 5.95483 7.80839 6.06911 7.69411C6.18339 7.57983 6.33838 7.51562 6.5 7.51562H19.5C19.6616 7.51562 19.8166 7.57983 19.9309 7.69411C20.0452 7.80839 20.1094 7.96338 20.1094 8.125Z" fill="white"/>
</svg>
