<svg width="40" height="40" viewBox="0 0 40 40" fill="none" xmlns="http://www.w3.org/2000/svg">
<g clip-path="url(#clip0_65_294)">
<path d="M6.34415 12.5778C6.01919 12.2528 5.46924 12.2778 5.11928 12.6028C4.79432 12.9277 4.81931 13.4777 5.14428 13.8276C9.36883 17.9272 19.3178 30.0259 21.3926 39.3249C21.4925 39.7249 21.8425 39.9999 22.2175 39.9999C22.2925 39.9999 22.3425 39.9999 22.4174 39.9749C22.8674 39.8499 23.1924 39.3999 23.0674 38.95C20.9176 29.251 10.6937 16.8023 6.34415 12.5778Z" fill="white"/>
<path d="M38.8905 0.804153C38.8405 0.354201 38.4405 -0.0457572 37.9906 0.00423748C30.0164 0.479187 21.4923 6.27857 17.3428 14.0028C12.8682 9.87819 7.21883 7.25347 1.99438 6.9285C1.49444 6.85351 1.11948 7.22847 1.09448 7.72842C0.194575 18.7023 2.19436 27.7013 6.76888 33.0257C9.56858 36.2754 13.2432 38.1002 17.6927 38.4252H17.7427C18.1427 38.4252 18.5426 38.1502 18.6176 37.7502C18.7176 37.2253 18.3426 36.7253 17.8177 36.6753C13.8431 36.4004 10.5685 34.7755 8.09374 31.8759C4.01917 27.1014 2.09437 18.7023 2.7943 8.72831C7.64378 9.25326 12.8182 11.903 16.8428 15.8776C16.9178 16.0275 17.0428 16.1525 17.1678 16.2025C17.5677 16.6025 17.9677 17.0274 18.3177 17.4524C19.5675 18.9022 20.6174 20.4021 21.4423 21.9269C21.4673 22.0769 21.5423 22.2269 21.6673 22.3269C23.3671 25.6015 24.117 29.0761 23.8421 32.4758C23.7921 32.9507 24.142 33.3507 24.642 33.4007C25.1419 33.4257 25.5169 33.1007 25.5669 32.6008C25.6169 31.9008 25.6419 31.2259 25.6169 30.551C35.2908 28.1013 40.2653 17.0524 38.8905 0.804153ZM25.4419 28.8762C25.1669 26.5014 24.417 24.1267 23.2671 21.8269C27.1417 15.3276 32.2912 9.30325 34.8909 6.82851C35.2159 6.50355 35.2409 5.95361 34.9159 5.60364C34.5909 5.25368 34.041 5.25368 33.691 5.57865C31.1663 8.05338 26.1918 13.8028 22.3172 20.0771C21.5423 18.8022 20.6424 17.5524 19.6175 16.3775C19.3175 16.0275 18.9676 15.6526 18.6426 15.3276C22.2922 8.15337 29.9164 2.65396 37.2406 1.85404C37.6656 8.40335 37.5906 25.5515 25.4419 28.8762Z" fill="white"/>
</g>
<defs>
<clipPath id="clip0_65_294">
<rect width="40" height="40" fill="white"/>
</clipPath>
</defs>
</svg>
