<svg width="40" height="40" viewBox="0 0 40 40" fill="none" xmlns="http://www.w3.org/2000/svg">
<g clip-path="url(#clip0_65_268)">
<path d="M31.5774 21.9487C26.2973 21.9487 21.9286 26.1209 20 28.3101C18.0711 26.1209 13.7024 21.9487 8.42264 21.9487C3.77822 21.9487 0 25.7272 0 30.3714C0 35.0155 3.77848 38.794 8.42264 38.794C13.7027 38.794 18.0711 34.6218 20 32.433C21.9289 34.6221 26.2976 38.794 31.5774 38.794C36.2218 38.794 40 35.0155 40 30.3714C40 25.7272 36.2218 21.9487 31.5774 21.9487ZM15.7736 32.9372C12.6176 35.622 10.0342 36.1854 8.42264 36.1854C5.21681 36.1854 2.60866 33.5772 2.60866 30.3714C2.60866 27.1655 5.21681 24.5574 8.42264 24.5574C12.9078 24.5574 16.8546 28.6387 18.3293 30.3732C17.547 31.2945 16.6924 32.1519 15.7736 32.9372ZM31.5774 36.1854C27.0938 36.1854 23.148 32.1069 21.6722 30.3714C23.148 28.6359 27.0938 24.5574 31.5774 24.5574C34.7832 24.5574 37.3913 27.1655 37.3913 30.3714C37.3913 33.5772 34.7835 36.1854 31.5774 36.1854Z" fill="white"/>
<path d="M17.1641 19.269C18.0407 19.9469 19.2394 20.7261 19.29 20.7589L20.0002 21.2198L20.7102 20.7589C20.7609 20.7261 21.9596 19.9469 22.8361 19.269C24.8453 17.715 27.1513 15.6116 27.1513 13.1196C27.1513 10.5556 25.0652 8.46924 22.501 8.46924C21.6147 8.4696 20.747 8.72319 20 9.20015C19.253 8.72319 18.3853 8.4696 17.499 8.46924C14.9347 8.46924 12.8486 10.5553 12.8486 13.1196C12.8489 15.6116 15.155 17.715 17.1641 19.269ZM17.499 11.0779C18.0809 11.0779 18.6373 11.3281 19.0251 11.7644L20 12.8606L20.9746 11.7644C21.1662 11.5488 21.4012 11.3761 21.6642 11.2578C21.9272 11.1395 22.2123 11.0782 22.5007 11.0779C23.6264 11.0779 24.5424 11.9937 24.5424 13.1196C24.5424 14.1358 23.4312 15.5104 21.2398 17.2053C20.8538 17.5038 20.3826 17.8345 19.9997 18.0958C19.6171 17.8345 19.1459 17.5038 18.7599 17.2053C16.5688 15.5104 15.4576 14.1355 15.4576 13.1196C15.4576 11.9939 16.3733 11.0779 17.499 11.0779Z" fill="white"/>
<path d="M13.2748 1.46045L15.5829 6.19084L15.3023 6.32768L12.9941 1.59754L13.2748 1.46045Z" fill="white"/>
<path d="M26.7926 1.46094L27.0732 1.59777L24.764 6.32791L24.4834 6.19107L26.7926 1.46094Z" fill="white"/>
<path d="M20.1894 1.20605V6.25814H19.877V1.20605H20.1894Z" fill="white"/>
</g>
<defs>
<clipPath id="clip0_65_268">
<rect width="40" height="40" fill="white"/>
</clipPath>
</defs>
</svg>
