<svg width="40" height="41" viewBox="0 0 40 41" fill="none" xmlns="http://www.w3.org/2000/svg">
<g clip-path="url(#clip0_65_279)">
<path d="M6.23987 20.4469H1.38654C0.933203 20.4469 0.533203 20.0469 0.533203 19.5936C0.533203 19.1402 0.933203 18.7402 1.38654 18.7402H6.23987C6.6932 18.7402 7.0932 19.1402 7.0932 19.5936C7.06654 20.0736 6.71987 20.4469 6.23987 20.4469Z" fill="white"/>
<path d="M38.6129 20.4469H33.7596C33.3063 20.4469 32.9062 20.0469 32.9062 19.5936C32.9062 19.1402 33.3063 18.7402 33.7596 18.7402H38.6129C39.0663 18.7402 39.4663 19.1402 39.4663 19.5936C39.4663 20.0736 39.0663 20.4469 38.6129 20.4469Z" fill="white"/>
<path d="M19.9998 6.60669C19.5465 6.60669 19.1465 6.20669 19.1465 5.75335V0.873353C19.1465 0.42002 19.5465 0.0200195 19.9998 0.0200195C20.4532 0.0200195 20.8531 0.42002 20.8531 0.873353V5.75335C20.8531 6.20669 20.4532 6.60669 19.9998 6.60669Z" fill="white"/>
<path d="M10.2662 10.6865C10.0528 10.6865 9.83949 10.6065 9.65283 10.4465L6.23949 6.97983C5.89283 6.63316 5.89283 6.09983 6.23949 5.75316C6.58616 5.4065 7.11949 5.4065 7.46616 5.75316L10.9062 9.21983C11.2528 9.5665 11.2528 10.0998 10.9062 10.4465C10.6928 10.5798 10.4795 10.6865 10.2662 10.6865Z" fill="white"/>
<path d="M29.7337 10.6865C29.5204 10.6865 29.307 10.6065 29.1204 10.4465C28.7737 10.0998 28.7737 9.5665 29.1204 9.21983L32.5604 5.75316C32.907 5.4065 33.4404 5.4065 33.787 5.75316C34.1337 6.09983 34.1337 6.63316 33.787 6.97983L30.347 10.4465C30.1604 10.5798 29.947 10.6865 29.7337 10.6865Z" fill="white"/>
<path d="M23.1996 35.6735H16.7996C16.3463 35.6735 15.9463 35.2735 15.9463 34.8201C15.9463 34.3668 16.3463 33.9668 16.7996 33.9668H23.1996C23.653 33.9668 24.053 34.3668 24.053 34.8201C24.0263 35.3001 23.653 35.6735 23.1996 35.6735Z" fill="white"/>
<path d="M23.7331 37.86H16.2664C15.8131 37.86 15.4131 37.46 15.4131 37.0067C15.4131 36.5533 15.8131 36.1533 16.2664 36.1533H23.6798C24.1331 36.1533 24.5331 36.5533 24.5331 37.0067C24.5598 37.46 24.1864 37.86 23.7331 37.86Z" fill="white"/>
<path d="M21.8669 40.0201H18.1336C17.6803 40.0201 17.2803 39.6201 17.2803 39.1668C17.2803 38.7135 17.6803 38.3135 18.1336 38.3135H21.8669C22.3203 38.3135 22.7203 38.7135 22.7203 39.1668C22.6936 39.6201 22.3469 40.0201 21.8669 40.0201Z" fill="white"/>
<path d="M23.4931 33.2999H16.5064C15.0131 33.2999 13.8398 32.0732 13.8398 30.6066V29.9932C13.8398 28.8199 13.1998 27.1932 12.0264 25.3266C10.5331 23.4599 9.75977 21.2199 9.75977 18.8732C9.75977 13.1932 14.3464 8.55322 19.9998 8.55322C25.6531 8.55322 30.2398 13.1932 30.2398 18.8732C30.2398 21.2466 29.4664 23.4866 27.9731 25.3266C26.8264 27.1666 26.1598 28.8199 26.1598 29.9932V30.6066C26.1864 32.0999 24.9864 33.2999 23.4931 33.2999ZM19.9998 10.2866C15.2798 10.2866 11.4664 14.1532 11.4664 18.8999C11.4664 20.8999 12.1331 22.7666 13.3864 24.3132L13.4398 24.3932C14.3998 25.9132 15.5198 28.0999 15.5198 29.9932V30.6066C15.5198 31.1666 15.9464 31.5932 16.5064 31.5932H23.5464C24.0798 31.5932 24.5331 31.1666 24.5331 30.6066V29.9932C24.5331 28.0999 25.6798 25.8866 26.6131 24.3932L26.6664 24.3132C27.9198 22.7399 28.5864 20.8732 28.5864 18.8999C28.5331 14.1532 24.7198 10.2866 19.9998 10.2866Z" fill="white"/>
</g>
<defs>
<clipPath id="clip0_65_279">
<rect width="40" height="40" fill="white" transform="translate(0 0.0200195)"/>
</clipPath>
</defs>
</svg>
