<svg width="40" height="41" viewBox="0 0 40 41" fill="none" xmlns="http://www.w3.org/2000/svg">
<g clip-path="url(#clip0_65_302)">
<path d="M16.926 2.33574C16.9452 2.35666 16.9653 2.37672 16.9862 2.39592C16.9653 2.41511 16.9452 2.43519 16.926 2.4561C16.9068 2.43519 16.8867 2.41511 16.8658 2.39592C16.8866 2.37658 16.9067 2.35651 16.926 2.33574ZM16.926 0.0200195L16.0858 1.556L14.5498 2.39621L16.0858 3.23641L16.926 4.77211L17.7662 3.23612L19.3022 2.39592L17.7662 1.55571L16.926 0.0200195Z" fill="white"/>
<path d="M10.9084 8.63994C10.9276 8.66086 10.9477 8.68092 10.9686 8.70012C10.9477 8.71931 10.9276 8.73939 10.9084 8.7603C10.8892 8.73939 10.8691 8.71931 10.8482 8.70012C10.869 8.68078 10.8891 8.66071 10.9084 8.63994ZM10.9084 6.32422L10.0682 7.8602L8.53223 8.70041L10.0682 9.54061L10.9084 11.0763L11.7486 9.54032L13.2846 8.70012L11.7486 7.85991L10.9084 6.32422Z" fill="white"/>
<path d="M33.2678 13.9247C33.2375 13.8558 33.1966 13.7921 33.1466 13.7358C31.1188 10.698 27.6678 8.6886 23.7536 8.6694C23.745 8.6694 23.7367 8.66797 23.7281 8.66797L23.7186 8.66854L23.6977 8.66797C19.76 8.66797 16.2854 10.6837 14.2483 13.7367C14.1995 13.7929 14.1574 13.8548 14.1279 13.9241C12.9962 15.6915 12.3801 17.7395 12.3489 19.8379C12.3332 19.897 12.3223 19.9577 12.3223 20.0216C12.3223 20.0855 12.3334 20.1463 12.3489 20.2053C12.3678 21.3776 12.5696 22.505 12.9195 23.5658L13.2891 23.2489L14.2076 22.899C13.9938 22.1959 13.8591 21.471 13.8061 20.738H18.1682C18.1719 20.9552 18.1842 21.167 18.194 21.3805L18.551 21.2444H19.6253C19.617 21.0756 19.6047 20.9062 19.601 20.738H22.9822V22.4153L24.415 22.9431V20.738H27.9778C27.948 22.0617 27.7833 23.3789 27.4864 24.6691H25.7578L25.8171 24.7519L28.7418 26.1019H31.5289C31.1183 26.628 30.6563 27.1118 30.1497 27.5462L30.3268 27.7586H31.8301L32.2453 27.4817C33.9911 25.4855 35.0519 22.8761 35.0519 20.0216C35.0532 17.8604 34.4339 15.7443 33.2678 13.9247ZM18.1868 19.3052H13.8058C13.9159 17.7543 14.3914 16.2514 15.1933 14.9194H18.8181C18.4713 16.3037 18.2553 17.8056 18.1868 19.3052ZM19.2393 13.4865H16.243C17.4266 12.1354 18.9541 11.13 20.6633 10.5773C20.099 11.3691 19.6216 12.3666 19.2393 13.4865ZM22.9813 19.3052H19.619C19.691 17.6861 19.9288 16.2017 20.2767 14.9194H22.9813V19.3052ZM22.9813 13.4865H20.7427C21.3619 11.8755 22.1649 10.7458 22.9813 10.306V13.4865ZM24.4141 10.2756C25.2623 10.692 26.1137 11.8417 26.7722 13.4868H24.4141V10.2756ZM24.4141 19.3052V14.9194H27.2588C27.6262 16.208 27.8795 17.6947 27.9566 19.3052H24.4141ZM26.8399 10.6137C28.506 11.1734 29.994 12.1647 31.1524 13.4865H28.2839C27.8916 12.3827 27.4058 11.3995 26.8399 10.6137ZM28.724 14.9194H32.2023C33.0045 16.2513 33.4799 17.7543 33.5899 19.3052H29.3891C29.3164 17.8033 29.0865 16.302 28.724 14.9194ZM32.4591 24.6691H28.9805C29.2364 23.4604 29.3857 22.1356 29.4098 20.738H33.5899C33.4922 22.1131 33.107 23.4523 32.4591 24.6691Z" fill="white"/>
<path d="M38.55 29.4501C38.3649 28.6176 37.6327 28.1528 37.5499 28.1024L37.4989 28.0743C35.1279 26.8888 33.1675 28.2502 32.2602 29.3569L30.2294 29.2887C29.8712 27.8192 27.2629 26.7498 25.4489 26.1746L24.6995 24.6762C24.6165 24.5099 24.4816 24.375 24.3153 24.2919C24.2012 24.2349 21.5035 22.8886 20.0913 22.4178C18.5066 21.8899 14.6429 23.7185 13.4963 24.2919C13.4502 24.3148 13.4064 24.3421 13.3651 24.373L11.7076 25.6158L2.42724 27.1034C2.28175 27.1277 2.14507 27.1894 2.03064 27.2825C1.8681 27.304 1.71789 27.3807 1.60514 27.4997C1.4924 27.6188 1.42397 27.7729 1.41132 27.9364C1.39866 28.0998 1.44254 28.2627 1.53562 28.3976C1.6287 28.5326 1.76532 28.6315 1.9226 28.6778C2.49688 28.85 4.16353 29.5504 4.28561 30.478C4.31598 30.7104 4.16668 31.0368 4.00879 31.3824C3.71076 32.0334 3.30327 32.9252 3.8145 33.9483C4.23059 34.7807 4.88481 35.212 5.41066 35.5585C5.69206 35.7439 5.93536 35.9043 6.09067 36.0869C6.47581 36.5397 6.27493 37.2131 5.97232 38.0467C5.75855 38.6353 5.574 39.1439 5.84623 39.6045C5.94796 39.7764 6.11045 39.8896 6.28983 39.9343C6.39128 39.9867 6.50247 40.02 6.61766 40.02C6.71997 40.02 6.8237 39.9979 6.92228 39.9518C8.74998 39.0918 10.6267 37.9825 12.4412 36.9102C14.1414 35.9055 15.8969 34.8681 17.5856 34.0534C18.0453 34.2027 18.48 34.3434 18.8981 34.4784C21.0522 35.175 22.7535 35.7252 25.1549 36.5984C25.9346 36.8818 27.5208 36.766 27.7194 36.7282C32.5729 35.8038 35.4792 33.3089 37.2158 31.8182C37.5488 31.5325 37.8359 31.2861 38.0626 31.1179L38.2314 30.9402C38.6343 30.3361 38.6271 29.7965 38.55 29.4501ZM37.0931 30.0544C36.8544 30.2398 36.5859 30.4702 36.2825 30.7307C34.6542 32.1283 31.9293 34.4675 27.4597 35.3189C27.1861 35.3604 26.002 35.3814 25.6446 35.2515C23.2192 34.3695 21.5069 33.8159 19.3391 33.1146C18.8402 32.9533 18.3178 32.7842 17.7573 32.6017L17.2306 32.6346C15.4031 33.4946 13.5267 34.6036 11.7125 35.676C10.3163 36.501 8.88324 37.3463 7.48022 38.0742C7.75446 37.2331 7.98027 36.0961 7.18248 35.1581C6.89506 34.82 6.54144 34.587 6.19957 34.3618C5.73877 34.058 5.34045 33.7955 5.0963 33.3069C4.90086 32.9163 5.04328 32.5653 5.31179 31.9778C5.53617 31.4875 5.79035 30.9316 5.7061 30.2908C5.60753 29.5409 5.15619 28.948 4.61315 28.4941L12.1896 27.2799C12.3272 27.2579 12.4578 27.2025 12.5693 27.1189L14.3343 25.7952C16.5789 24.6811 19.0044 23.8675 19.5477 24.0489C20.6074 24.402 22.5881 25.3585 23.2911 25.7032L24.0754 27.2722C24.1279 27.3771 24.2012 27.4701 24.291 27.5456C24.3807 27.6211 24.4849 27.6775 24.5972 27.7112C26.6364 28.323 28.3466 29.2392 28.553 29.6679C28.5541 29.8705 28.5636 30.0725 28.5733 30.2694C28.5871 30.5502 28.6074 30.9628 28.5613 31.125C28.4828 31.1431 28.2558 31.17 27.754 31.0697C25.6105 30.641 22.0666 28.8775 22.0311 28.8597C21.8276 28.7617 21.5938 28.7476 21.38 28.8206C21.1663 28.8936 20.9899 29.0477 20.8889 29.2497C20.7878 29.4517 20.7704 29.6853 20.8403 29.9001C20.9101 30.1149 21.0617 30.2935 21.2622 30.3974C21.4158 30.4742 25.0472 32.2816 27.4167 32.7556C27.6936 32.8109 28.022 32.8625 28.3584 32.8625C28.8281 32.8625 29.3138 32.7619 29.6981 32.4312C30.2202 31.9813 30.3116 31.3494 30.3087 30.7247L32.5864 30.8012L33.205 30.4848C33.3575 30.2602 34.7482 28.329 36.8243 29.3386C36.896 29.3896 37.1089 29.5681 37.1516 29.7604C37.1591 29.7951 37.18 29.8894 37.0931 30.0544Z" fill="white"/>
</g>
<defs>
<clipPath id="clip0_65_302">
<rect width="40" height="40" fill="white" transform="translate(0 0.0200195)"/>
</clipPath>
</defs>
</svg>
