<svg xmlns="http://www.w3.org/2000/svg" width="16" height="15" viewBox="0 0 16 15" fill="none">
    <path
        d="M7.86011 10.5H13.3601C13.9124 10.5 14.3601 10.0523 14.3601 9.5V2.5C14.3601 1.94772 13.9124 1.5 13.3601 1.5H2.36011C1.80782 1.5 1.36011 1.94772 1.36011 2.5V9.5C1.36011 10.0523 1.80782 10.5 2.36011 10.5H5.36011V13L7.86011 10.5ZM13.3682 11.4733H8.36011L5.78202 14.0445C4.99672 14.8277 4.36011 14.5668 4.36011 13.4701V11.4733H2.35199C1.2519 11.4733 0.360107 10.5707 0.360107 9.47904V2.49428C0.360107 1.39287 1.2535 0.5 2.35199 0.5H13.3682C14.4683 0.5 15.3601 1.40266 15.3601 2.49428V9.47904C15.3601 10.5805 14.4667 11.4733 13.3682 11.4733Z"
        fill="white" />
</svg>