<svg xmlns="http://www.w3.org/2000/svg" width="17" height="15" viewBox="0 0 17 15" fill="none">
    <path
        d="M8.44987 13.5293C8.43913 13.5364 8.42784 13.5451 8.41717 13.5555L8.44987 13.5293ZM8.44987 13.5293L8.49372 13.4943C8.15424 13.7149 9.2319 13.0316 9.72972 12.6973C10.5634 12.1374 11.3827 11.5412 12.1476 10.9202C13.3829 9.91729 14.3571 8.94469 14.9707 8.0484C15.0768 7.89345 15.1714 7.74175 15.2509 7.59926C16.0202 6.1777 16.2089 4.78378 15.7499 3.65928C15.4604 2.81107 14.7232 2.11024 13.7402 1.70951C12.138 1.11281 10.0476 1.84107 8.89978 3.36445L8.50801 3.88441L8.10672 3.37176C6.94956 1.8935 5.00518 1.14653 3.31832 1.71973C2.36519 2.00661 1.65441 2.72083 1.23966 3.77373C0.790518 4.87182 0.982161 6.26491 1.74017 7.582C1.94779 7.93178 2.23223 8.30916 2.58696 8.70915C3.17754 9.37507 3.94655 10.0864 4.85619 10.8275C6.11235 11.8509 8.6586 13.6294 8.58282 13.5555C8.5394 13.5131 8.4861 13.5001 8.50044 13.5001C8.51061 13.5001 8.48277 13.5076 8.44987 13.5293Z"
        stroke="#E84A43" stroke-width="1.5" />
</svg>