<svg xmlns="http://www.w3.org/2000/svg" width="19" height="12" viewBox="0 0 19 12" fill="none">
    <path
        d="M18.6514 6.96046C17.3924 8.46883 13.9774 11.979 9.46342 12H9.42442C6.26242 12 3.20842 10.2938 0.345422 6.9265C-0.115141 6.38164 -0.115141 5.5844 0.345422 5.03954C1.60442 3.53117 5.01942 0.0209773 9.53342 0H9.57342C12.7354 0 15.7894 1.70615 18.6524 5.0735C19.1123 5.61875 19.1119 6.4157 18.6514 6.96046ZM17.8674 5.7228C15.2084 2.59519 12.4194 1.00991 9.57442 1.00991H9.54042C5.46142 1.02889 2.30642 4.28336 1.14042 5.68085C0.991393 5.8518 0.988009 6.10534 1.13242 6.2802C3.79142 9.40781 6.58142 10.9921 9.42542 10.9921H9.46042C13.5394 10.9741 16.6934 7.71964 17.8604 6.32215C18.0096 6.15111 18.0125 5.89727 17.8674 5.7228ZM9.49942 9.89328C7.35251 9.86469 5.63255 8.10803 5.65158 5.96334C5.6706 3.81864 7.42145 2.0927 9.56853 2.10211C11.7156 2.11151 13.4512 3.85273 13.4514 5.9975C13.4349 8.16252 11.6668 9.90547 9.49942 9.89328ZM9.49942 3.11762C7.91092 3.13962 6.63892 4.4399 6.65354 6.02677C6.66817 7.61364 7.96393 8.8903 9.55257 8.88307C11.1412 8.87584 12.4253 7.58743 12.4254 6.0005C12.4128 4.39798 11.1037 3.10821 9.49942 3.11762Z"
        fill="white" />
</svg>