<svg xmlns="http://www.w3.org/2000/svg" width="4" height="14" viewBox="0 0 4 14" fill="none">
    <path
        d="M1.94399 3.49973C1.12346 3.46906 0.480076 2.78419 0.500472 1.96312C0.520868 1.14205 1.19746 0.489988 2.0185 0.500116C2.83954 0.510244 3.49985 1.1788 3.5 2.00012C3.48425 2.84399 2.78764 3.51535 1.94399 3.49973ZM1.94399 8.49973C1.12346 8.46906 0.480076 7.78419 0.500472 6.96312C0.520868 6.14205 1.19746 5.48999 2.0185 5.50012C2.83954 5.51024 3.49985 6.1788 3.5 7.00012C3.48425 7.84399 2.78764 8.51535 1.94399 8.49973ZM1.94399 13.4997C1.12346 13.4691 0.480076 12.7842 0.500472 11.9631C0.520868 11.1421 1.19746 10.49 2.0185 10.5001C2.83954 10.5102 3.49985 11.1788 3.5 12.0001C3.48425 12.844 2.78764 13.5154 1.94399 13.4997Z"
        fill="white" />
</svg>