<svg xmlns="http://www.w3.org/2000/svg" width="40" height="40" viewBox="0 0 40 40" fill="none">
    <g clip-path="url(#clip0_430_899)">
        <path
            d="M12.174 40V30.4349C12.174 30.2042 12.0824 29.9831 11.9194 29.82C11.7563 29.6569 11.5351 29.5653 11.3045 29.5653H4.34783C4.11721 29.5653 3.89603 29.6569 3.73296 29.82C3.56989 29.9831 3.47827 30.2042 3.47827 30.4349V40H5.21738V31.3044H10.4347V40H12.174Z"
            fill="#5F5E36" />
        <path
            d="M24.3477 40V23.4782C24.3477 23.2476 24.256 23.0264 24.093 22.8633C23.9299 22.7003 23.7087 22.6086 23.4781 22.6086H16.5217C16.291 22.6086 16.0699 22.7003 15.9068 22.8633C15.7437 23.0264 15.6521 23.2476 15.6521 23.4782V40H17.3912V24.3478H22.6085V40H24.3477Z"
            fill="#5F5E36" />
        <path
            d="M25.7948 7.13044L27.3599 10.7827L28.925 10.0871L26.1423 3.65222L19.7079 6.43467L20.4034 7.99978L24.0557 6.43467C21.9688 11.1302 19.1861 14.9564 15.5339 18.0869C13.099 20.1738 10.3166 21.7391 7.70789 22.9564L5.09922 24C4.57744 24.174 4.40366 24.174 4.22966 24.3478L3.36011 24.5218L3.70789 26.2609L4.57744 26.0869C4.75144 26.0869 5.09922 25.9129 5.621 25.7391C6.49055 25.3913 7.36011 25.2173 8.40366 24.6956C11.1863 23.4782 14.1428 21.7391 16.7514 19.4782C20.5774 16.174 23.5339 12.174 25.7948 7.13044Z"
            fill="#5F5E36" />
        <path
            d="M36.5217 40V14.7826C36.5217 14.552 36.4301 14.3308 36.267 14.1678C36.1039 14.0047 35.8828 13.9131 35.6522 13.9131H28.6955C28.4649 13.9131 28.2437 14.0047 28.0806 14.1678C27.9175 14.3308 27.8259 14.552 27.8259 14.7826V40H29.565V15.6522H34.7824V40H36.5217Z"
            fill="#5F5E36" />
        <path d="M40 38.2609V40H0V38.2609H40Z" fill="#5F5E36" />
        <path
            d="M10.4349 12.3478C11.3045 12.1738 12.174 11.6522 12.5218 10.7827C13.3914 8.86956 12.5218 7.65222 10.6087 6.60867C10.4347 6.43467 10.4347 6.60867 9.73915 6.26089C9.0436 5.91311 9.0436 5.91311 8.8696 5.73911C7.82604 5.21733 7.47827 4.69556 7.82604 4C8.34782 3.13044 10.2609 3.13044 10.9565 3.65222L11.652 4.174L12.6956 2.78267L12 2.08689L10.4349 1.56511V0H8.6956V1.56511C7.65204 1.73911 6.78249 2.26067 6.26071 3.30422C5.39115 5.21733 6.26071 6.43467 8.17382 7.47822C8.5216 7.65222 8.34782 7.65222 9.04338 8C9.73893 8.34778 9.73893 8.34778 9.91293 8.34778C11.1303 8.86956 11.3043 9.39133 10.9565 10.0869C10.6087 10.9564 8.5216 10.9564 7.82604 10.4347L7.13049 9.91289L6.08693 11.3042L6.78249 11.826C7.30427 12.1738 7.99982 12.3478 8.6956 12.5216V13.9129H10.4347L10.4349 12.3478Z"
            fill="#5F5E36" />
    </g>
    <defs>
        <clipPath id="clip0_430_899">
            <rect width="40" height="40" fill="white" />
        </clipPath>
    </defs>
</svg>