<svg xmlns="http://www.w3.org/2000/svg" width="40" height="40" viewBox="0 0 40 40" fill="none">
    <g clip-path="url(#clip0_430_912)">
        <path
            d="M20.6856 27.9132V26.0326C22.0067 25.9101 22.9692 25.5221 23.5632 24.8481C24.1367 24.1741 24.4234 23.439 24.4234 22.663C24.4234 20.8454 23.1536 19.7019 20.6856 19.2525V15.3112C21.8223 15.3929 22.6005 15.9238 22.9283 16.9245L24.1776 16.5161C23.604 15.066 22.4163 14.2494 20.6856 14.0858V12.5969H19.4567V14.0858C17.1936 14.4738 16.0671 15.5358 16.0671 17.3125C16.0671 17.9865 16.272 18.599 16.702 19.1505C17.132 19.7019 18.0538 20.1512 19.4567 20.4983V24.7663C18.1562 24.6643 17.2756 23.9494 16.784 22.663L15.5347 23.1532C16.1082 24.8481 17.4189 25.8079 19.4567 26.0326V27.9132H20.6856ZM20.6856 20.7639C22.2627 20.9885 23.0614 21.6623 23.0614 22.7856C23.0614 23.3165 22.8565 23.7659 22.4265 24.1539C22.0169 24.5419 21.4229 24.7461 20.6856 24.7665V20.7639ZM17.3676 17.1696C17.3676 16.6592 17.5518 16.2303 17.9411 15.8832C18.3098 15.5361 18.8218 15.3523 19.4567 15.3114V19.0894C18.064 18.8236 17.3676 18.1907 17.3676 17.1696Z"
            fill="#5F5E36" />
        <path
            d="M11.3361 17.1509C11.0495 16.9263 10.6397 16.9467 10.4146 17.2327L5.78565 22.7465C5.2121 19.4792 5.84699 16.13 7.60855 13.2098C9.65656 9.79935 13.0155 7.32844 16.8248 6.42977C21.8222 5.26577 27.0447 6.92 30.4651 10.7796C30.7109 11.0451 31.1205 11.0656 31.3867 10.8409C31.6529 10.5958 31.6734 10.1873 31.448 9.92201C27.7204 5.7151 22.0064 3.89776 16.5379 5.18421C12.4008 6.14399 8.73478 8.83956 6.50233 12.5562C4.86387 15.2927 4.12653 18.3558 4.33142 21.4192L1.19807 16.7427C0.993184 16.4365 0.583626 16.3547 0.296958 16.5589C-0.0101553 16.7632 -0.0921556 17.1512 0.112734 17.4574L4.88476 24.5641C5.00765 24.7274 5.19187 24.8501 5.39676 24.8501H5.43765C5.53085 24.8497 5.6229 24.8295 5.70766 24.7908C5.79243 24.752 5.86795 24.6957 5.92921 24.6254L11.4386 18.0701C11.6637 17.8045 11.6228 17.3961 11.3361 17.1509Z"
            fill="#5F5E36" />
        <path
            d="M39.8862 24.2354L35.1551 17.19C35.1551 17.1696 35.1347 17.1696 35.1347 17.1492L35.1142 17.1287C35.0938 17.0878 35.0529 17.0878 35.0322 17.0469C35.0118 17.0265 34.9913 16.9856 34.9502 16.9652C34.8478 16.8834 34.7249 16.8223 34.602 16.8223C34.3971 16.8223 34.1924 16.904 34.0695 17.0469L28.5806 23.6227C28.3553 23.8883 28.3757 24.317 28.6626 24.5416C28.9288 24.7663 29.3384 24.7459 29.5842 24.4599L34.1513 19.0278C34.6224 25.5219 29.8709 31.975 23.1941 33.5475C18.5041 34.6501 13.6501 33.2819 10.2094 29.8921C9.96363 29.647 9.53363 29.647 9.28785 29.8921C9.04207 30.1372 9.04207 30.5661 9.28785 30.811C12.1961 33.6699 16.0261 35.2221 19.9788 35.2221C21.1461 35.2221 22.3137 35.0793 23.481 34.8137C30.4035 33.2004 35.4213 26.7472 35.4829 20.0081L38.8213 24.9705C38.88 25.0581 38.9591 25.13 39.052 25.1798C39.1448 25.2297 39.2484 25.256 39.3538 25.2565C39.4767 25.2565 39.5996 25.2156 39.7225 25.1545C40.0091 24.9296 40.0911 24.5212 39.8862 24.2354Z"
            fill="#5F5E36" />
    </g>
    <defs>
        <clipPath id="clip0_430_912">
            <rect width="40" height="40" fill="white" />
        </clipPath>
    </defs>
</svg>